<svg xmlns="http://www.w3.org/2000/svg" viewBox="0 0 200 200"><g transform="translate(100 110)"><path d="M -78 6 Q -40 -60 0 -62 Q 40 -60 78 6 L 70 12 Q 36 -44 0 -46 Q -36 -44 -70 12 Z M 56 -20 L 56 8 L 50 8 L 50 -16 Z" fill="#000"></path><path d="M -2 -28 C -36 -28 -54 -8 -54 22 C -54 50 -36 70 -2 70 C 18 70 30 64 38 54 L 38 30 L 12 30 L 12 22 L 52 22 L 52 60 C 42 70 24 78 -2 78 C -42 78 -68 56 -68 22 C -68 -12 -42 -36 -2 -36 C 22 -36 38 -28 48 -16 L 42 -10 C 32 -22 18 -28 -2 -28 Z" fill="#000"></path><rect x="22" y="22" width="32" height="3" fill="#000"></rect></g></svg>