<svg xmlns="http://www.w3.org/2000/svg" viewBox="0 0 200 200"><rect width="200" height="200" fill="none"></rect><g transform="translate(-87.297 17.614) scale(0.8937)"><path d="M251.345 50.640 C253.822 53.458 255.769 56.325 255.673 58.179 C255.453 62.410 249.136 76.693 247.008 79.442 C246.148 79.575 245.165 79.037 244.059 77.820 C241.517 75.279 237.597 69.750 230.472 62.838 C221.170 53.814 204.110 40.495 191.200 36.283 C187.896 35.204 187.478 35.115 184.892 36.834 C181.568 39.044 173.416 45.078 171.540 47.576 L205.705 73.017 C211.892 78.204 232.880 95.329 235.051 103.399 C233.395 106.441 224.599 116.746 222.268 118.671 C213.944 117.692 180.143 87.258 171.311 80.142 C168.649 77.997 165.812 75.046 163.528 72.702 C162.012 71.148 157.916 66.462 155.452 65.792 C147.227 82.271 144.833 81.277 149.304 88.165 C156.833 99.764 172.085 112.243 183.093 120.388 C186.325 122.780 189.862 125.251 193.039 126.948 C195.108 128.054 196.031 128.843 198.236 130.018 C200.172 131.050 201.848 131.741 203.200 133.214 C201.710 135.827 188.789 143.109 186.083 144.596 C181.214 147.272 181.794 148.348 176.395 145.472 C165.723 139.785 152.808 129.681 144.774 121.273 C141.965 118.334 140.502 115.871 137.900 113.974 L134.232 130.500 C133.500 134.733 133.073 138.721 134.093 140.832 C135.250 143.228 145.444 151.732 148.396 153.825 C158.763 161.180 172.261 167.279 187.965 168.846 C222.931 172.337 248.100 156.454 263.865 136.746 C282.999 112.828 286.099 79.914 274.694 52.270 C267.560 34.977 257.387 24.998 243.958 15.098 C239.806 12.036 238.274 12.801 232.690 14.226 C227.686 15.504 215.829 18.821 212.423 20.933 C213.314 21.896 228.857 30.521 237.310 37.373 C241.291 40.598 248.216 47.081 251.345 50.640" fill="none" stroke="#000" stroke-width="4.48"></path><path d="M134.727 104.159 C135.478 104.595 140.356 110.028 141.472 111.255 C149.894 120.515 167.974 136.296 178.853 141.792 C182.826 143.798 184.690 141.991 188.291 139.856 C190.694 138.431 194.506 136.723 196.025 133.848 L192.819 132.091 C183.785 127.506 163.458 109.601 156.894 102.798 C154.187 99.991 151.006 96.540 148.452 93.462 C138.203 81.114 144.690 80.287 155.617 60.260 C157.598 60.980 158.287 62.130 159.774 63.768 C168.926 73.852 214.420 113.490 221.635 113.948 C223.963 111.812 229.753 105.476 230.677 102.765 C227.398 95.448 206.525 78.781 199.850 73.186 C194.554 68.748 189.064 64.908 183.698 60.770 C180.683 58.445 167.682 50.049 166.321 48.210 C167.976 44.622 181.039 34.708 185.039 32.480 C192.643 28.245 223.149 51.107 228.662 55.805 C233.870 60.245 237.309 63.600 241.612 68.833 C245.038 72.998 244.604 72.615 246.050 73.256 C247.440 69.256 249.378 65.758 250.836 60.898 C251.844 57.539 251.337 56.029 250.239 54.693 C243.468 46.453 234.910 40.927 226.416 34.491 C215.552 27.513 214.921 27.453 204.151 21.567 C205.465 17.913 231.031 11.264 233.945 10.448 C231.373 6.165 213.209 2.457 207.740 1.716 C196.301 0.168 186.004 1.259 176.140 3.755 C148.825 10.667 131.518 27.636 119.889 51.735 C111.770 68.560 111.178 94.019 117.106 110.846 C119.173 116.712 125.110 131.777 129.018 133.970 C129.499 133.181 130.232 129.482 130.506 128.367 C130.897 126.103 131.307 123.775 131.594 121.703 C132.463 115.416 133.548 110.244 134.727 104.159" fill="#000"></path></g></svg>