<svg xmlns="http://www.w3.org/2000/svg" viewBox="0 0 1080 1920" width="1080" height="1920" preserveAspectRatio="xMidYMid meet">
  <defs>
    <linearGradient id="g" x1="0" y1="0" x2="1" y2="1"><stop offset="0" stop-color="#5B9BD5"></stop><stop offset=".35" stop-color="#2B6CB0"></stop><stop offset=".7" stop-color="#1E5090"></stop><stop offset="1" stop-color="#163B6B"></stop></linearGradient>
    <linearGradient id="g2" x1="0" y1="0" x2="0" y2="1"><stop offset="0" stop-color="rgba(212,175,55,.18)"></stop><stop offset="1" stop-color="rgba(212,175,55,0)"></stop></linearGradient>
    <radialGradient id="vignette" cx="0.5" cy="0.4" r="0.8"><stop offset="0" stop-color="rgba(212,175,55,0)"></stop><stop offset="1" stop-color="rgba(0,0,0,.45)"></stop></radialGradient>
    <pattern id="grain" x="0" y="0" width="80" height="80" patternUnits="userSpaceOnUse"><circle cx="10" cy="20" r=".7" fill="#5B9BD5" opacity=".06"></circle><circle cx="35" cy="50" r=".5" fill="#5B9BD5" opacity=".05"></circle><circle cx="60" cy="15" r=".6" fill="#5B9BD5" opacity=".06"></circle><circle cx="70" cy="65" r=".4" fill="#5B9BD5" opacity=".04"></circle><circle cx="20" cy="70" r=".5" fill="#5B9BD5" opacity=".05"></circle></pattern>
    <clipPath id="sphereClip"><circle cx="50" cy="49" r="38"></circle></clipPath>
    <symbol id="sphere" viewBox="0 0 2376 1760"><path d="M0,0 L6,0 L22,8 L49,23 L79,43 L96,55 L109,65 L119,73 L130,82 L144,94 L156,105 L163,112 L171,119 L180,128 L187,136 L201,151 L210,162 L224,179 L237,197 L247,211 L258,228 L270,248 L279,264 L293,291 L305,317 L316,345 L328,381 L337,413 L345,449 L351,486 L355,523 L356,538 L356,598 L354,627 L350,659 L344,693 L336,726 L326,761 L317,787 L306,813 L291,846 L279,869 L263,896 L249,918 L236,936 L224,952 L216,962 L207,973 L198,983 L191,991 L179,1004 L154,1029 L146,1036 L134,1047 L123,1056 L107,1069 L88,1083 L55,1105 L35,1117 L10,1131 L-14,1143 L-47,1157 L-71,1166 L-98,1175 L-136,1185 L-169,1192 L-202,1197 L-231,1200 L-246,1201 L-309,1201 L-346,1198 L-383,1193 L-423,1185 L-464,1174 L-499,1162 L-528,1150 L-552,1139 L-578,1126 L-602,1112 L-622,1100 L-642,1086 L-661,1072 L-677,1059 L-688,1050 L-702,1038 L-719,1022 L-739,1002 L-746,994 L-748,991 L-749,986 L-749,893 L-745,845 L-740,803 L-733,760 L-732,757 L-729,758 L-719,771 L-705,788 L-694,801 L-685,811 L-676,821 L-662,836 L-635,863 L-627,870 L-613,883 L-602,892 L-589,903 L-572,916 L-552,931 L-535,943 L-517,955 L-496,968 L-471,982 L-448,994 L-429,1004 L-403,1016 L-365,1032 L-334,1044 L-330,1042 L-311,1029 L-295,1017 L-277,1004 L-259,990 L-243,977 L-227,964 L-212,951 L-202,942 L-194,935 L-198,932 L-221,920 L-251,904 L-268,894 L-290,882 L-313,868 L-332,856 L-354,842 L-374,829 L-399,813 L-419,799 L-435,788 L-452,776 L-471,762 L-492,746 L-506,735 L-517,726 L-528,717 L-541,706 L-551,697 L-562,688 L-570,680 L-578,673 L-592,659 L-600,652 L-608,644 L-615,636 L-627,624 L-634,616 L-647,601 L-656,590 L-667,576 L-680,558 L-677,548 L-665,517 L-651,485 L-634,449 L-617,417 L-613,411 L-609,413 L-565,457 L-557,464 L-546,475 L-538,482 L-523,496 L-515,503 L-504,513 L-493,522 L-482,532 L-471,541 L-457,553 L-443,564 L-426,578 L-413,588 L-399,599 L-386,609 L-368,623 L-347,639 L-333,649 L-315,662 L-297,675 L-281,686 L-261,700 L-240,714 L-216,730 L-199,741 L-174,757 L-155,769 L-126,786 L-100,801 L-71,818 L-64,812 L-54,801 L-45,790 L-35,779 L-26,768 L-14,753 L1,733 L14,715 L25,699 L19,692 L9,682 L1,675 L-9,665 L-17,658 L-29,647 L-37,640 L-47,631 L-58,622 L-69,612 L-80,603 L-93,592 L-107,581 L-119,571 L-133,560 L-151,546 L-169,532 L-187,518 L-201,507 L-218,494 L-239,478 L-251,469 L-272,453 L-293,437 L-305,428 L-318,418 L-335,405 L-356,389 L-377,373 L-389,364 L-406,351 L-427,335 L-444,322 L-462,308 L-478,296 L-496,282 L-507,273 L-503,267 L-492,256 L-484,249 L-475,240 L-467,233 L-455,222 L-444,213 L-429,200 L-419,192 L-404,180 L-390,170 L-384,172 L-355,188 L-332,201 L-307,215 L-283,229 L-257,244 L-229,261 L-209,273 L-190,285 L-165,301 L-125,328 L-107,341 L-93,351 L-72,367 L-55,380 L-41,392 L-30,401 L-19,411 L-11,418 L1,429 L13,441 L21,448 L33,461 L43,471 L50,479 L63,494 L77,511 L88,525 L102,544 L104,545 L105,540 L117,511 L128,480 L139,443 L146,413 L151,387 L155,359 L154,353 L142,337 L129,321 L121,311 L109,297 L94,281 L58,245 L50,238 L39,228 L31,221 L18,210 L4,199 L-11,187 L-29,174 L-47,161 L-82,138 L-103,125 L-125,112 L-146,100 L-170,87 L-197,73 L-208,67 L-208,64 L-180,52 L-143,38 L-108,26 L-80,18 L-36,7 Z " fill="#2E4470" transform="translate(1612,311)"/><path d="M0,0 L65,0 L102,3 L144,9 L172,15 L206,24 L242,36 L267,46 L274,49 L274,51 L245,57 L203,69 L166,81 L131,94 L90,112 L61,125 L42,135 L40,135 L40,137 L49,140 L90,160 L124,177 L146,189 L173,204 L193,216 L213,228 L246,250 L266,264 L285,278 L302,291 L319,305 L334,318 L346,329 L361,343 L399,381 L406,389 L418,403 L428,414 L439,428 L441,431 L440,443 L433,481 L425,513 L411,557 L409,559 L398,547 L389,536 L378,524 L371,516 L330,475 L322,468 L308,455 L297,446 L283,434 L273,426 L255,412 L236,398 L217,384 L194,368 L182,360 L159,345 L137,331 L116,318 L88,301 L66,288 L38,272 L9,255 L-19,239 L-46,224 L-73,209 L-78,208 L-95,220 L-113,234 L-126,244 L-137,253 L-151,265 L-161,274 L-169,281 L-181,292 L-193,303 L-235,345 L-235,347 L-216,361 L-202,372 L-181,388 L-162,402 L-147,414 L-131,426 L-118,436 L-100,450 L-81,464 L-63,478 L-44,492 L-26,506 L-10,518 L3,528 L21,542 L40,556 L53,566 L74,582 L93,596 L111,610 L126,622 L142,634 L155,645 L171,657 L184,668 L198,679 L215,693 L228,704 L239,713 L250,723 L261,732 L274,744 L282,751 L294,762 L303,769 L302,774 L290,791 L280,804 L272,814 L260,828 L252,838 L240,852 L236,853 L212,839 L188,825 L162,809 L143,797 L111,776 L67,747 L49,734 L32,722 L14,709 L0,699 L-19,685 L-36,672 L-52,660 L-66,649 L-81,637 L-95,626 L-111,613 L-121,605 L-134,594 L-147,583 L-161,571 L-172,561 L-183,552 L-190,545 L-198,538 L-205,531 L-213,524 L-229,509 L-246,493 L-282,457 L-289,449 L-297,441 L-302,435 L-306,440 L-318,459 L-331,482 L-346,510 L-363,546 L-380,586 L-395,625 L-397,632 L-386,648 L-376,661 L-367,672 L-358,683 L-346,697 L-339,705 L-328,717 L-319,727 L-291,755 L-283,762 L-267,777 L-257,786 L-247,795 L-236,804 L-226,813 L-212,824 L-196,837 L-177,851 L-157,866 L-141,877 L-124,889 L-85,915 L-67,927 L-48,939 L-24,954 L4,971 L30,986 L57,1001 L72,1009 L70,1013 L56,1025 L42,1036 L27,1048 L9,1061 L-10,1075 L-22,1083 L-32,1080 L-54,1072 L-90,1056 L-123,1040 L-149,1026 L-176,1010 L-195,998 L-214,985 L-232,972 L-250,958 L-261,949 L-274,938 L-288,926 L-301,914 L-342,873 L-349,865 L-360,853 L-367,845 L-378,832 L-389,818 L-400,804 L-411,790 L-422,775 L-433,759 L-435,765 L-444,813 L-451,856 L-457,902 L-460,933 L-462,972 L-463,1026 L-469,1021 L-482,1004 L-495,986 L-507,967 L-516,952 L-526,934 L-540,907 L-551,883 L-565,847 L-576,814 L-585,778 L-592,742 L-597,708 L-600,670 L-600,609 L-598,579 L-594,545 L-587,505 L-579,471 L-568,435 L-555,400 L-543,372 L-529,343 L-517,321 L-501,295 L-493,283 L-482,267 L-470,251 L-459,237 L-448,224 L-439,213 L-431,205 L-424,197 L-396,169 L-388,162 L-378,153 L-367,144 L-350,130 L-331,116 L-301,96 L-276,81 L-258,71 L-241,62 L-205,46 L-180,36 L-146,25 L-112,16 L-78,9 L-46,4 L-16,1 Z " fill="#2F8F48" transform="translate(1298,241)"/><path d="M0,0 L3,2 L10,17 L15,28 L21,46 L27,58 L31,69 L12,79 L-15,93 L-37,106 L-61,121 L-80,134 L-98,147 L-111,157 L-127,170 L-140,181 L-151,190 L-168,206 L-178,215 L-198,235 L-205,243 L-219,258 L-228,269 L-240,283 L-253,300 L-268,320 L-286,347 L-299,368 L-311,389 L-325,415 L-341,448 L-354,479 L-364,506 L-376,542 L-388,587 L-396,625 L-402,665 L-405,691 L-408,739 L-408,791 L-405,835 L-400,875 L-394,909 L-385,948 L-377,978 L-364,1018 L-348,1059 L-333,1092 L-317,1124 L-303,1148 L-286,1177 L-266,1207 L-253,1225 L-237,1246 L-228,1257 L-217,1270 L-205,1284 L-193,1297 L-179,1312 L-165,1326 L-157,1333 L-149,1341 L-141,1348 L-127,1360 L-116,1369 L-102,1380 L-89,1390 L-71,1403 L-47,1419 L-28,1431 L-4,1445 L20,1458 L52,1474 L77,1485 L110,1498 L147,1511 L182,1521 L219,1530 L260,1538 L298,1543 L333,1546 L352,1547 L409,1547 L446,1545 L484,1541 L527,1534 L567,1525 L604,1515 L640,1503 L677,1489 L704,1477 L729,1465 L751,1454 L774,1441 L791,1431 L810,1419 L832,1404 L850,1391 L863,1381 L877,1370 L894,1356 L909,1343 L922,1331 L933,1320 L940,1314 L947,1306 L961,1292 L968,1284 L980,1270 L992,1256 L1003,1242 L1019,1221 L1031,1204 L1047,1180 L1064,1152 L1078,1126 L1079,1124 L1085,1126 L1108,1138 L1144,1156 L1145,1160 L1137,1177 L1124,1200 L1114,1217 L1092,1250 L1080,1267 L1064,1288 L1053,1302 L1042,1315 L1030,1329 L1018,1342 L1006,1355 L976,1385 L968,1392 L954,1405 L943,1414 L933,1423 L923,1431 L909,1442 L888,1458 L869,1471 L853,1482 L831,1496 L816,1505 L795,1517 L763,1534 L736,1547 L703,1561 L675,1572 L639,1584 L606,1594 L566,1604 L530,1611 L488,1617 L449,1621 L417,1623 L348,1623 L303,1620 L259,1615 L218,1608 L181,1600 L150,1592 L111,1580 L85,1571 L51,1557 L21,1544 L-14,1527 L-43,1511 L-71,1494 L-92,1481 L-104,1473 L-122,1460 L-139,1447 L-152,1437 L-168,1424 L-179,1415 L-189,1406 L-197,1399 L-209,1388 L-222,1376 L-246,1352 L-253,1344 L-266,1330 L-275,1319 L-284,1309 L-295,1295 L-308,1279 L-321,1261 L-335,1241 L-348,1221 L-361,1200 L-374,1178 L-388,1152 L-405,1118 L-418,1088 L-432,1053 L-443,1022 L-455,983 L-463,951 L-471,913 L-478,868 L-482,826 L-484,792 L-484,741 L-482,704 L-478,662 L-471,615 L-463,575 L-453,536 L-439,491 L-428,460 L-412,422 L-398,392 L-386,368 L-373,345 L-360,323 L-346,301 L-333,282 L-320,264 L-304,243 L-291,227 L-280,214 L-271,204 L-264,196 L-252,183 L-241,172 L-240,170 L-238,170 L-236,166 L-228,159 L-214,145 L-206,138 L-195,128 L-184,119 L-170,107 L-153,94 L-136,81 L-116,67 L-101,57 L-79,43 L-57,30 L-28,14 Z " fill="#2E4470" transform="translate(966,99)"/></symbol>
    <symbol id="crown" viewBox="0 0 2376 1760"><path d="M0,0 L6,0 L22,8 L49,23 L79,43 L96,55 L109,65 L119,73 L130,82 L144,94 L156,105 L163,112 L171,119 L180,128 L187,136 L201,151 L210,162 L224,179 L237,197 L247,211 L258,228 L270,248 L279,264 L293,291 L305,317 L316,345 L328,381 L337,413 L345,449 L351,486 L355,523 L356,538 L356,598 L354,627 L350,659 L344,693 L336,726 L326,761 L317,787 L306,813 L291,846 L279,869 L263,896 L249,918 L236,936 L224,952 L216,962 L207,973 L198,983 L191,991 L179,1004 L154,1029 L146,1036 L134,1047 L123,1056 L107,1069 L88,1083 L55,1105 L35,1117 L10,1131 L-14,1143 L-47,1157 L-71,1166 L-98,1175 L-136,1185 L-169,1192 L-202,1197 L-231,1200 L-246,1201 L-309,1201 L-346,1198 L-383,1193 L-423,1185 L-464,1174 L-499,1162 L-528,1150 L-552,1139 L-578,1126 L-602,1112 L-622,1100 L-642,1086 L-661,1072 L-677,1059 L-688,1050 L-702,1038 L-719,1022 L-739,1002 L-746,994 L-748,991 L-749,986 L-749,893 L-745,845 L-740,803 L-733,760 L-732,757 L-729,758 L-719,771 L-705,788 L-694,801 L-685,811 L-676,821 L-662,836 L-635,863 L-627,870 L-613,883 L-602,892 L-589,903 L-572,916 L-552,931 L-535,943 L-517,955 L-496,968 L-471,982 L-448,994 L-429,1004 L-403,1016 L-365,1032 L-334,1044 L-330,1042 L-311,1029 L-295,1017 L-277,1004 L-259,990 L-243,977 L-227,964 L-212,951 L-202,942 L-194,935 L-198,932 L-221,920 L-251,904 L-268,894 L-290,882 L-313,868 L-332,856 L-354,842 L-374,829 L-399,813 L-419,799 L-435,788 L-452,776 L-471,762 L-492,746 L-506,735 L-517,726 L-528,717 L-541,706 L-551,697 L-562,688 L-570,680 L-578,673 L-592,659 L-600,652 L-608,644 L-615,636 L-627,624 L-634,616 L-647,601 L-656,590 L-667,576 L-680,558 L-677,548 L-665,517 L-651,485 L-634,449 L-617,417 L-613,411 L-609,413 L-565,457 L-557,464 L-546,475 L-538,482 L-523,496 L-515,503 L-504,513 L-493,522 L-482,532 L-471,541 L-457,553 L-443,564 L-426,578 L-413,588 L-399,599 L-386,609 L-368,623 L-347,639 L-333,649 L-315,662 L-297,675 L-281,686 L-261,700 L-240,714 L-216,730 L-199,741 L-174,757 L-155,769 L-126,786 L-100,801 L-71,818 L-64,812 L-54,801 L-45,790 L-35,779 L-26,768 L-14,753 L1,733 L14,715 L25,699 L19,692 L9,682 L1,675 L-9,665 L-17,658 L-29,647 L-37,640 L-47,631 L-58,622 L-69,612 L-80,603 L-93,592 L-107,581 L-119,571 L-133,560 L-151,546 L-169,532 L-187,518 L-201,507 L-218,494 L-239,478 L-251,469 L-272,453 L-293,437 L-305,428 L-318,418 L-335,405 L-356,389 L-377,373 L-389,364 L-406,351 L-427,335 L-444,322 L-462,308 L-478,296 L-496,282 L-507,273 L-503,267 L-492,256 L-484,249 L-475,240 L-467,233 L-455,222 L-444,213 L-429,200 L-419,192 L-404,180 L-390,170 L-384,172 L-355,188 L-332,201 L-307,215 L-283,229 L-257,244 L-229,261 L-209,273 L-190,285 L-165,301 L-125,328 L-107,341 L-93,351 L-72,367 L-55,380 L-41,392 L-30,401 L-19,411 L-11,418 L1,429 L13,441 L21,448 L33,461 L43,471 L50,479 L63,494 L77,511 L88,525 L102,544 L104,545 L105,540 L117,511 L128,480 L139,443 L146,413 L151,387 L155,359 L154,353 L142,337 L129,321 L121,311 L109,297 L94,281 L58,245 L50,238 L39,228 L31,221 L18,210 L4,199 L-11,187 L-29,174 L-47,161 L-82,138 L-103,125 L-125,112 L-146,100 L-170,87 L-197,73 L-208,67 L-208,64 L-180,52 L-143,38 L-108,26 L-80,18 L-36,7 Z " fill="#2E4470" transform="translate(1612,311)"/><path d="M0,0 L65,0 L102,3 L144,9 L172,15 L206,24 L242,36 L267,46 L274,49 L274,51 L245,57 L203,69 L166,81 L131,94 L90,112 L61,125 L42,135 L40,135 L40,137 L49,140 L90,160 L124,177 L146,189 L173,204 L193,216 L213,228 L246,250 L266,264 L285,278 L302,291 L319,305 L334,318 L346,329 L361,343 L399,381 L406,389 L418,403 L428,414 L439,428 L441,431 L440,443 L433,481 L425,513 L411,557 L409,559 L398,547 L389,536 L378,524 L371,516 L330,475 L322,468 L308,455 L297,446 L283,434 L273,426 L255,412 L236,398 L217,384 L194,368 L182,360 L159,345 L137,331 L116,318 L88,301 L66,288 L38,272 L9,255 L-19,239 L-46,224 L-73,209 L-78,208 L-95,220 L-113,234 L-126,244 L-137,253 L-151,265 L-161,274 L-169,281 L-181,292 L-193,303 L-235,345 L-235,347 L-216,361 L-202,372 L-181,388 L-162,402 L-147,414 L-131,426 L-118,436 L-100,450 L-81,464 L-63,478 L-44,492 L-26,506 L-10,518 L3,528 L21,542 L40,556 L53,566 L74,582 L93,596 L111,610 L126,622 L142,634 L155,645 L171,657 L184,668 L198,679 L215,693 L228,704 L239,713 L250,723 L261,732 L274,744 L282,751 L294,762 L303,769 L302,774 L290,791 L280,804 L272,814 L260,828 L252,838 L240,852 L236,853 L212,839 L188,825 L162,809 L143,797 L111,776 L67,747 L49,734 L32,722 L14,709 L0,699 L-19,685 L-36,672 L-52,660 L-66,649 L-81,637 L-95,626 L-111,613 L-121,605 L-134,594 L-147,583 L-161,571 L-172,561 L-183,552 L-190,545 L-198,538 L-205,531 L-213,524 L-229,509 L-246,493 L-282,457 L-289,449 L-297,441 L-302,435 L-306,440 L-318,459 L-331,482 L-346,510 L-363,546 L-380,586 L-395,625 L-397,632 L-386,648 L-376,661 L-367,672 L-358,683 L-346,697 L-339,705 L-328,717 L-319,727 L-291,755 L-283,762 L-267,777 L-257,786 L-247,795 L-236,804 L-226,813 L-212,824 L-196,837 L-177,851 L-157,866 L-141,877 L-124,889 L-85,915 L-67,927 L-48,939 L-24,954 L4,971 L30,986 L57,1001 L72,1009 L70,1013 L56,1025 L42,1036 L27,1048 L9,1061 L-10,1075 L-22,1083 L-32,1080 L-54,1072 L-90,1056 L-123,1040 L-149,1026 L-176,1010 L-195,998 L-214,985 L-232,972 L-250,958 L-261,949 L-274,938 L-288,926 L-301,914 L-342,873 L-349,865 L-360,853 L-367,845 L-378,832 L-389,818 L-400,804 L-411,790 L-422,775 L-433,759 L-435,765 L-444,813 L-451,856 L-457,902 L-460,933 L-462,972 L-463,1026 L-469,1021 L-482,1004 L-495,986 L-507,967 L-516,952 L-526,934 L-540,907 L-551,883 L-565,847 L-576,814 L-585,778 L-592,742 L-597,708 L-600,670 L-600,609 L-598,579 L-594,545 L-587,505 L-579,471 L-568,435 L-555,400 L-543,372 L-529,343 L-517,321 L-501,295 L-493,283 L-482,267 L-470,251 L-459,237 L-448,224 L-439,213 L-431,205 L-424,197 L-396,169 L-388,162 L-378,153 L-367,144 L-350,130 L-331,116 L-301,96 L-276,81 L-258,71 L-241,62 L-205,46 L-180,36 L-146,25 L-112,16 L-78,9 L-46,4 L-16,1 Z " fill="#2F8F48" transform="translate(1298,241)"/><path d="M0,0 L3,2 L10,17 L15,28 L21,46 L27,58 L31,69 L12,79 L-15,93 L-37,106 L-61,121 L-80,134 L-98,147 L-111,157 L-127,170 L-140,181 L-151,190 L-168,206 L-178,215 L-198,235 L-205,243 L-219,258 L-228,269 L-240,283 L-253,300 L-268,320 L-286,347 L-299,368 L-311,389 L-325,415 L-341,448 L-354,479 L-364,506 L-376,542 L-388,587 L-396,625 L-402,665 L-405,691 L-408,739 L-408,791 L-405,835 L-400,875 L-394,909 L-385,948 L-377,978 L-364,1018 L-348,1059 L-333,1092 L-317,1124 L-303,1148 L-286,1177 L-266,1207 L-253,1225 L-237,1246 L-228,1257 L-217,1270 L-205,1284 L-193,1297 L-179,1312 L-165,1326 L-157,1333 L-149,1341 L-141,1348 L-127,1360 L-116,1369 L-102,1380 L-89,1390 L-71,1403 L-47,1419 L-28,1431 L-4,1445 L20,1458 L52,1474 L77,1485 L110,1498 L147,1511 L182,1521 L219,1530 L260,1538 L298,1543 L333,1546 L352,1547 L409,1547 L446,1545 L484,1541 L527,1534 L567,1525 L604,1515 L640,1503 L677,1489 L704,1477 L729,1465 L751,1454 L774,1441 L791,1431 L810,1419 L832,1404 L850,1391 L863,1381 L877,1370 L894,1356 L909,1343 L922,1331 L933,1320 L940,1314 L947,1306 L961,1292 L968,1284 L980,1270 L992,1256 L1003,1242 L1019,1221 L1031,1204 L1047,1180 L1064,1152 L1078,1126 L1079,1124 L1085,1126 L1108,1138 L1144,1156 L1145,1160 L1137,1177 L1124,1200 L1114,1217 L1092,1250 L1080,1267 L1064,1288 L1053,1302 L1042,1315 L1030,1329 L1018,1342 L1006,1355 L976,1385 L968,1392 L954,1405 L943,1414 L933,1423 L923,1431 L909,1442 L888,1458 L869,1471 L853,1482 L831,1496 L816,1505 L795,1517 L763,1534 L736,1547 L703,1561 L675,1572 L639,1584 L606,1594 L566,1604 L530,1611 L488,1617 L449,1621 L417,1623 L348,1623 L303,1620 L259,1615 L218,1608 L181,1600 L150,1592 L111,1580 L85,1571 L51,1557 L21,1544 L-14,1527 L-43,1511 L-71,1494 L-92,1481 L-104,1473 L-122,1460 L-139,1447 L-152,1437 L-168,1424 L-179,1415 L-189,1406 L-197,1399 L-209,1388 L-222,1376 L-246,1352 L-253,1344 L-266,1330 L-275,1319 L-284,1309 L-295,1295 L-308,1279 L-321,1261 L-335,1241 L-348,1221 L-361,1200 L-374,1178 L-388,1152 L-405,1118 L-418,1088 L-432,1053 L-443,1022 L-455,983 L-463,951 L-471,913 L-478,868 L-482,826 L-484,792 L-484,741 L-482,704 L-478,662 L-471,615 L-463,575 L-453,536 L-439,491 L-428,460 L-412,422 L-398,392 L-386,368 L-373,345 L-360,323 L-346,301 L-333,282 L-320,264 L-304,243 L-291,227 L-280,214 L-271,204 L-264,196 L-252,183 L-241,172 L-240,170 L-238,170 L-236,166 L-228,159 L-214,145 L-206,138 L-195,128 L-184,119 L-170,107 L-153,94 L-136,81 L-116,67 L-101,57 L-79,43 L-57,30 L-28,14 Z " fill="#2E4470" transform="translate(966,99)"/></symbol>
  </defs>

    
    <rect id="bg" width="1080" height="1920" fill="#2E4470"></rect>
    <rect width="1080" height="1920" fill="url(#grain)" opacity=".7"></rect>
    <rect width="1080" height="1920" fill="url(#vignette)"></rect>
    
  
    <g id="confetti" opacity=".8"><rect x="0" y="0" width="6" height="6" fill="#2B6CB0" opacity=".18" transform="rotate(0 3 3)"></rect><rect x="97" y="53" width="9" height="9" fill="#2B6CB0" opacity=".18" transform="rotate(37 101.5 57.5)"></rect><rect x="194" y="106" width="12" height="12" fill="#2B6CB0" opacity=".18" transform="rotate(74 200 112)"></rect><rect x="291" y="159" width="15" height="15" fill="#2B6CB0" opacity=".18" transform="rotate(111 298.5 166.5)"></rect><rect x="388" y="212" width="6" height="6" fill="#2B6CB0" opacity=".18" transform="rotate(148 391 215)"></rect><rect x="485" y="265" width="9" height="9" fill="#2B6CB0" opacity=".18" transform="rotate(185 489.5 269.5)"></rect><rect x="582" y="318" width="12" height="12" fill="#2B6CB0" opacity=".18" transform="rotate(222 588 324)"></rect><rect x="679" y="371" width="15" height="15" fill="#2B6CB0" opacity=".18" transform="rotate(259 686.5 378.5)"></rect><rect x="776" y="424" width="6" height="6" fill="#2B6CB0" opacity=".18" transform="rotate(296 779 427)"></rect><rect x="873" y="477" width="9" height="9" fill="#2B6CB0" opacity=".18" transform="rotate(333 877.5 481.5)"></rect><rect x="970" y="530" width="12" height="12" fill="#2B6CB0" opacity=".18" transform="rotate(370 976 536)"></rect><rect x="1067" y="583" width="15" height="15" fill="#2B6CB0" opacity=".18" transform="rotate(407 1074.5 590.5)"></rect><rect x="84" y="636" width="6" height="6" fill="#2B6CB0" opacity=".18" transform="rotate(444 87 639)"></rect><rect x="181" y="689" width="9" height="9" fill="#2B6CB0" opacity=".18" transform="rotate(481 185.5 693.5)"></rect><rect x="278" y="742" width="12" height="12" fill="#2B6CB0" opacity=".18" transform="rotate(518 284 748)"></rect><rect x="375" y="795" width="15" height="15" fill="#2B6CB0" opacity=".18" transform="rotate(555 382.5 802.5)"></rect><rect x="472" y="848" width="6" height="6" fill="#2B6CB0" opacity=".18" transform="rotate(592 475 851)"></rect><rect x="569" y="901" width="9" height="9" fill="#2B6CB0" opacity=".18" transform="rotate(629 573.5 905.5)"></rect><rect x="666" y="954" width="12" height="12" fill="#2B6CB0" opacity=".18" transform="rotate(666 672 960)"></rect><rect x="763" y="1007" width="15" height="15" fill="#2B6CB0" opacity=".18" transform="rotate(703 770.5 1014.5)"></rect><rect x="860" y="1060" width="6" height="6" fill="#2B6CB0" opacity=".18" transform="rotate(740 863 1063)"></rect><rect x="957" y="1113" width="9" height="9" fill="#2B6CB0" opacity=".18" transform="rotate(777 961.5 1117.5)"></rect><rect x="1054" y="1166" width="12" height="12" fill="#2B6CB0" opacity=".18" transform="rotate(814 1060 1172)"></rect><rect x="71" y="1219" width="15" height="15" fill="#2B6CB0" opacity=".18" transform="rotate(851 78.5 1226.5)"></rect></g>
    <g id="symbol" transform="translate(540,537.6)">
      <text text-anchor="middle" font-family="Cinzel,Georgia,serif" font-weight="700" font-size="180" fill="url(#g)" dominant-baseline="middle">✦</text>
    </g>
    <g id="headline" transform="translate(540,998.4000000000001)">
      <text text-anchor="middle" font-family="Cormorant Garamond,Georgia,serif" font-style="italic" font-weight="500" font-size="92" fill="#5B9BD5">Feliz Día del Contador</text>
      <text y="100" text-anchor="middle" font-family="Cormorant Garamond,Georgia,serif" font-style="italic" font-weight="500" font-size="52" fill="#2B6CB0">Dominicano.</text>
      <rect x="-80" y="160" width="160" height="1" fill="url(#g)"></rect>
    </g>
    <g id="message" transform="translate(540,1382.3999999999999)">
      <text text-anchor="middle" font-family="Inter,Arial,sans-serif" font-weight="300" font-size="32" fill="#9CA8B8" letter-spacing="1">A las y los profesionales que sostienen</text>
      <text y="48" text-anchor="middle" font-family="Inter,Arial,sans-serif" font-weight="300" font-size="32" fill="#9CA8B8" letter-spacing="1">la transparencia financiera del país.</text>
    </g>
    <g id="signature" transform="translate(540,1651.2)">
      <text text-anchor="middle" font-family="Inter,Arial,sans-serif" font-weight="500" font-size="22" fill="#163B6B" letter-spacing="4">— EQUIPO HUYGHU &amp; ASOCIADOS · REPÚBLICA DOMINICANA</text>
    </g>
    
    <g id="logo">
      <use href="#sphere" x="60" y="1804" width="56" height="56"></use>
      <text x="130" y="1839.7" font-family="Cinzel,Georgia,serif" font-weight="600" font-size="22" fill="#5B9BD5" letter-spacing="1.3199999999999998">HUYGHU &amp; ASOCIADOS</text>
      <text x="130" y="1857.7" font-family="Inter,Arial,sans-serif" font-weight="500" font-size="10" fill="#1E5090" letter-spacing="3.2">CONTADORES PÚBLICOS</text>
      <text x="1020" y="1856" text-anchor="end" font-family="JetBrains Mono,monospace" font-size="11" fill="#163B6B" letter-spacing="1.98">@huyghu_rd</text>
    </g>
  
  </svg>