<svg xmlns="http://www.w3.org/2000/svg" viewBox="0 0 1080 1080" width="1080" height="1080" preserveAspectRatio="xMidYMid meet">
  <defs>
    <linearGradient id="g" x1="0" y1="0" x2="1" y2="1"><stop offset="0" stop-color="#F4D773"></stop><stop offset=".35" stop-color="#D4AF37"></stop><stop offset=".7" stop-color="#B8862B"></stop><stop offset="1" stop-color="#8B5E1A"></stop></linearGradient>
    <linearGradient id="g2" x1="0" y1="0" x2="0" y2="1"><stop offset="0" stop-color="rgba(212,175,55,.18)"></stop><stop offset="1" stop-color="rgba(212,175,55,0)"></stop></linearGradient>
    <radialGradient id="vignette" cx="0.5" cy="0.4" r="0.8"><stop offset="0" stop-color="rgba(212,175,55,0)"></stop><stop offset="1" stop-color="rgba(0,0,0,.45)"></stop></radialGradient>
    <pattern id="grain" x="0" y="0" width="80" height="80" patternUnits="userSpaceOnUse"><circle cx="10" cy="20" r=".7" fill="#F4D773" opacity=".06"></circle><circle cx="35" cy="50" r=".5" fill="#F4D773" opacity=".05"></circle><circle cx="60" cy="15" r=".6" fill="#F4D773" opacity=".06"></circle><circle cx="70" cy="65" r=".4" fill="#F4D773" opacity=".04"></circle><circle cx="20" cy="70" r=".5" fill="#F4D773" opacity=".05"></circle></pattern>
    <clipPath id="sphereClip"><circle cx="50" cy="50" r="42"></circle></clipPath>
    <symbol id="sphere" viewBox="0 0 100 100">
      <circle cx="50" cy="50" r="42" fill="#0A0A0A"></circle>
      <g clip-path="url(#sphereClip)">
        <path d="M50 8A42 42 0 0 0 8 50 42 42 0 0 0 50 92Q30 70 30 50Q30 30 50 8Z" fill="url(#g)"></path>
        <g transform="skewY(-7)"><rect x="8" y="28" width="84" height="6" fill="url(#g)"></rect><rect x="8" y="44" width="84" height="6" fill="url(#g)"></rect><rect x="8" y="60" width="84" height="6" fill="url(#g)"></rect></g>
      </g>
    </symbol>
    <symbol id="crown" viewBox="0 0 120 100">
      <path d="M 22 32 Q 60 6 98 32" fill="none" stroke="url(#g)" stroke-width="6" stroke-linecap="round"></path>
      <path d="M 28 36 Q 60 14 92 36" fill="none" stroke="url(#g)" stroke-width="3" stroke-linecap="round" opacity=".7"></path>
      <path d="M 18 50 Q 60 38 102 50" fill="none" stroke="#FFFFFF" stroke-width="5" stroke-linecap="round"></path>
      <text x="60" y="92" text-anchor="middle" font-family="Cinzel,Georgia,serif" font-weight="700" font-size="76" fill="#FFFFFF">G</text>
    </symbol>
  </defs>

    
    <rect id="bg" width="1080" height="1080" fill="#0A0A0A"></rect>
    <rect width="1080" height="1080" fill="url(#grain)" opacity=".7"></rect>
    <rect width="1080" height="1080" fill="url(#vignette)"></rect>
    <path d="M 1080 0 L 1080 432 L 648 0 Z" fill="url(#g2)"></path>
  
    <g id="eyebrow" transform="translate(80,130)">
      <text font-family="Inter,Arial,sans-serif" font-weight="600" font-size="20" fill="#B8862B" letter-spacing="6">▶ RECORDATORIO FISCAL</text>
    </g>
    <g id="warn" transform="translate(80,190)">
      <text font-family="Cinzel,Georgia,serif" font-weight="600" font-size="80" fill="#D4AF37">⚠</text>
    </g>
    <g id="headline" transform="translate(80,300)">
      <text font-family="Cinzel,Georgia,serif" font-weight="500" font-size="110" fill="#F4D773" letter-spacing="2">ITBIS vence en</text>
      <text y="115.5" font-family="Cinzel,Georgia,serif" font-weight="700" font-size="143" fill="#F4D773" letter-spacing="2">6 días.</text>
    </g>
    <g id="meta" transform="translate(80,586)">
      <rect x="0" y="0" width="180" height="2" fill="url(#g)"></rect>
      <text y="40" font-family="Inter,Arial,sans-serif" font-weight="500" font-size="22" fill="#e8dfc6">Período: 10/2026</text>
      <text y="54" font-family="Inter,Arial,sans-serif" font-weight="500" font-size="22" fill="#e8dfc6">Fecha límite: 20 Nov 2026</text>
    </g>
    <g id="cta" transform="translate(80,900)">
      <rect width="340" height="54" fill="none" stroke="#D4AF37" stroke-width="2"></rect>
      <text x="170" y="35" text-anchor="middle" font-family="Inter,Arial,sans-serif" font-weight="600" font-size="16" fill="#F4D773" letter-spacing="4">▶ HABLEMOS HOY → huyghusrl.com</text>
    </g>
    
    <g id="logo">
      <use href="#sphere" x="60" y="964" width="56" height="56"></use>
      <text x="130" y="999.7" font-family="Cinzel,Georgia,serif" font-weight="600" font-size="22" fill="#F4D773" letter-spacing="1.3199999999999998">HUYGHU &amp; ASOCIADOS</text>
      <text x="130" y="1017.7" font-family="Inter,Arial,sans-serif" font-weight="500" font-size="10" fill="#B8862B" letter-spacing="3.2">CONTADORES PÚBLICOS</text>
      <text x="1020" y="1016" text-anchor="end" font-family="JetBrains Mono,monospace" font-size="11" fill="#8B5E1A" letter-spacing="1.98">@huyghu_rd</text>
    </g>
  
  </svg>