<svg xmlns="http://www.w3.org/2000/svg" viewBox="0 0 1200 627" width="1200" height="627" preserveAspectRatio="xMidYMid meet">
  <defs>
    <linearGradient id="g" x1="0" y1="0" x2="1" y2="1"><stop offset="0" stop-color="#F4D773"></stop><stop offset=".35" stop-color="#D4AF37"></stop><stop offset=".7" stop-color="#B8862B"></stop><stop offset="1" stop-color="#8B5E1A"></stop></linearGradient>
    <linearGradient id="g2" x1="0" y1="0" x2="0" y2="1"><stop offset="0" stop-color="rgba(212,175,55,.18)"></stop><stop offset="1" stop-color="rgba(212,175,55,0)"></stop></linearGradient>
    <radialGradient id="vignette" cx="0.5" cy="0.4" r="0.8"><stop offset="0" stop-color="rgba(212,175,55,0)"></stop><stop offset="1" stop-color="rgba(0,0,0,.45)"></stop></radialGradient>
    <pattern id="grain" x="0" y="0" width="80" height="80" patternUnits="userSpaceOnUse"><circle cx="10" cy="20" r=".7" fill="#F4D773" opacity=".06"></circle><circle cx="35" cy="50" r=".5" fill="#F4D773" opacity=".05"></circle><circle cx="60" cy="15" r=".6" fill="#F4D773" opacity=".06"></circle><circle cx="70" cy="65" r=".4" fill="#F4D773" opacity=".04"></circle><circle cx="20" cy="70" r=".5" fill="#F4D773" opacity=".05"></circle></pattern>
    <clipPath id="sphereClip"><circle cx="50" cy="50" r="42"></circle></clipPath>
    <symbol id="sphere" viewBox="0 0 100 100">
      <circle cx="50" cy="50" r="42" fill="#0A0A0A"></circle>
      <g clip-path="url(#sphereClip)">
        <path d="M50 8A42 42 0 0 0 8 50 42 42 0 0 0 50 92Q30 70 30 50Q30 30 50 8Z" fill="url(#g)"></path>
        <g transform="skewY(-7)"><rect x="8" y="28" width="84" height="6" fill="url(#g)"></rect><rect x="8" y="44" width="84" height="6" fill="url(#g)"></rect><rect x="8" y="60" width="84" height="6" fill="url(#g)"></rect></g>
      </g>
    </symbol>
    <symbol id="crown" viewBox="0 0 120 100">
      <path d="M 22 32 Q 60 6 98 32" fill="none" stroke="url(#g)" stroke-width="6" stroke-linecap="round"></path>
      <path d="M 28 36 Q 60 14 92 36" fill="none" stroke="url(#g)" stroke-width="3" stroke-linecap="round" opacity=".7"></path>
      <path d="M 18 50 Q 60 38 102 50" fill="none" stroke="#FFFFFF" stroke-width="5" stroke-linecap="round"></path>
      <text x="60" y="92" text-anchor="middle" font-family="Cinzel,Georgia,serif" font-weight="700" font-size="76" fill="#FFFFFF">G</text>
    </symbol>
  </defs>

    <rect id="bg" width="1200" height="627" fill="#0A0A0A"></rect>
    <rect width="1200" height="627" fill="url(#grain)" opacity=".5"></rect>
    <rect x="696" y="0" width="504" height="627" fill="#D4AF37"></rect>
    
    <g id="icon" transform="translate(258,223.5)">
      <g fill="none" stroke="#F4D773" stroke-width="6" stroke-linecap="round" stroke-linejoin="round">
        <rect x="0" y="0" width="180" height="180"></rect>
        <path d="M 30 130 L 30 90 M 75 130 L 75 50 M 120 130 L 120 70 M 165 130 L 165 100"></path>
        <circle cx="90" cy="35" r="14"></circle>
      </g>
    </g>
    
    <g id="content" transform="translate(746,120)">
      <text font-family="Inter,Arial,sans-serif" font-weight="600" font-size="16" fill="#0A0A0A" letter-spacing="5">▸ SERVICIO DESTACADO</text>
      <text y="70" font-family="Cinzel,Georgia,serif" font-weight="600" font-size="52" fill="#0A0A0A" letter-spacing="1">Auditoría</text>
      <text y="115" font-family="Cinzel,Georgia,serif" font-weight="500" font-style="italic" font-size="28" fill="#5a3f12">externa &amp; due diligence.</text>
      <g font-family="Inter,Arial,sans-serif" font-weight="400" font-size="17" fill="#0A0A0A">
        <text y="185">▸ Auditoría de estados financieros NIA</text>
        <text y="215">▸ Revisión limitada y compilación</text>
        <text y="245">▸ Due diligence operativo &amp; fiscal</text>
      </g>
      <g transform="translate(0,295)">
        <rect width="280" height="44" fill="#0A0A0A"></rect>
        <text x="140" y="29" text-anchor="middle" font-family="Inter,Arial,sans-serif" font-weight="600" font-size="13" fill="#F4D773" letter-spacing="3">▶ SOLICITAR PROPUESTA</text>
      </g>
    </g>
    
    <g id="logo">
      <use href="#sphere" x="60" y="521" width="56" height="56"></use>
      <text x="130" y="556.7" font-family="Cinzel,Georgia,serif" font-weight="600" font-size="22" fill="#F4D773" letter-spacing="1.3199999999999998">HUYGHU &amp; ASOCIADOS</text>
      <text x="130" y="574.7" font-family="Inter,Arial,sans-serif" font-weight="500" font-size="10" fill="#B8862B" letter-spacing="3.2">CONTADORES PÚBLICOS</text>
      <text x="1140" y="573" text-anchor="end" font-family="JetBrains Mono,monospace" font-size="11" fill="#8B5E1A" letter-spacing="1.98">@huyghu_rd</text>
    </g>
  
  </svg>