<svg xmlns="http://www.w3.org/2000/svg" viewBox="-40 0 493 380">
  <defs>
    <style>@import url('https://fonts.googleapis.com/css2?family=Montserrat:wght@500;700&amp;display=swap');</style>
  </defs>

  <!-- Símbolo: 9 paths completos de logo-final-vectorizado.svg -->
  <g transform="translate(119,0) scale(0.0736)">
    <path d="M0,0 L8,0 L30,11 L47,21 L65,32 L79,42 L91,50 L107,62 L121,73 L135,85 L146,94 L159,106 L167,114 L175,121 L182,128 L189,136 L202,150 L209,158 L222,174 L234,190 L247,208 L260,228 L275,253 L288,277 L300,301 L313,331 L322,356 L328,373 L332,388 L336,401 L341,422 L345,438 L353,485 L356,512 L358,534 L358,597 L356,627 L354,646 L348,682 L343,706 L338,727 L330,753 L318,789 L307,815 L296,839 L288,855 L278,874 L261,902 L252,916 L238,936 L226,952 L213,968 L202,981 L190,994 L181,1004 L156,1029 L148,1036 L136,1047 L125,1056 L109,1069 L90,1083 L60,1103 L42,1114 L21,1126 L-8,1141 L-33,1152 L-61,1163 L-97,1175 L-129,1184 L-167,1192 L-202,1197 L-217,1199 L-244,1201 L-313,1201 L-354,1197 L-381,1193 L-417,1186 L-452,1177 L-477,1169 L-505,1159 L-533,1147 L-558,1135 L-578,1125 L-602,1111 L-626,1096 L-637,1088 L-651,1078 L-669,1064 L-685,1051 L-696,1041 L-704,1034 L-717,1022 L-736,1003 L-743,995 L-747,990 L-747,891 L-744,853 L-739,809 L-733,771 L-730,757 L-728,757 L-717,771 L-704,787 L-692,801 L-683,811 L-674,821 L-662,834 L-632,864 L-624,871 L-610,884 L-599,893 L-586,904 L-569,917 L-550,931 L-533,943 L-512,957 L-487,972 L-469,982 L-441,997 L-419,1008 L-390,1021 L-358,1034 L-332,1044 L-328,1042 L-309,1029 L-293,1017 L-279,1007 L-261,993 L-247,982 L-236,973 L-225,964 L-211,952 L-200,942 L-192,935 L-196,932 L-223,918 L-249,904 L-266,894 L-288,882 L-311,868 L-330,856 L-352,842 L-369,831 L-386,820 L-407,806 L-427,792 L-443,781 L-461,768 L-482,752 L-499,739 L-515,726 L-526,717 L-540,705 L-554,693 L-567,681 L-575,674 L-591,658 L-599,651 L-614,635 L-623,626 L-630,618 L-639,608 L-648,597 L-662,580 L-676,561 L-678,556 L-668,529 L-650,487 L-634,453 L-621,428 L-613,414 L-611,411 L-607,413 L-561,459 L-553,466 L-543,476 L-535,483 L-520,497 L-512,504 L-502,513 L-491,522 L-479,533 L-469,541 L-455,553 L-441,564 L-424,578 L-407,591 L-392,603 L-379,613 L-361,627 L-342,641 L-323,655 L-305,668 L-285,682 L-262,698 L-247,708 L-208,734 L-183,750 L-158,766 L-131,782 L-105,797 L-79,812 L-70,818 L-66,816 L-52,801 L-43,790 L-33,779 L-24,768 L-12,753 L0,737 L13,719 L27,699 L21,692 L11,682 L3,675 L-6,666 L-14,659 L-27,647 L-37,638 L-48,629 L-59,619 L-70,610 L-79,602 L-90,593 L-107,579 L-121,568 L-135,557 L-153,543 L-168,531 L-188,516 L-199,507 L-212,497 L-233,481 L-249,469 L-266,456 L-278,447 L-294,435 L-307,425 L-320,415 L-333,405 L-354,389 L-370,377 L-386,365 L-404,351 L-425,335 L-438,325 L-451,315 L-464,305 L-481,292 L-498,279 L-505,273 L-503,269 L-491,257 L-483,250 L-474,241 L-466,234 L-454,223 L-443,214 L-433,205 L-423,197 L-412,188 L-394,174 L-388,170 L-382,172 L-355,187 L-330,201 L-302,217 L-274,233 L-245,250 L-220,265 L-201,277 L-177,292 L-135,320 L-119,331 L-105,341 L-87,354 L-74,364 L-61,374 L-50,383 L-40,391 L-26,403 L-12,415 L4,430 L19,445 L26,451 L33,459 L44,470 L51,478 L60,488 L69,499 L83,516 L93,529 L104,544 L106,545 L107,540 L121,506 L136,460 L140,446 L146,423 L153,387 L157,361 L157,354 L141,333 L128,317 L117,304 L110,296 L98,283 L61,246 L53,239 L41,228 L33,221 L22,212 L10,202 L-4,191 L-20,179 L-38,166 L-77,140 L-96,128 L-123,112 L-146,99 L-168,87 L-197,72 L-206,67 L-206,64 L-183,54 L-147,40 L-97,23 L-71,16 L-52,11 L-20,4 Z " fill="#27426E" transform="translate(1610,311)"/>
    <path d="M0,0 L68,0 L101,3 L139,8 L163,13 L192,20 L210,25 L250,39 L274,49 L274,51 L249,56 L233,60 L209,67 L188,74 L171,79 L133,93 L108,104 L65,123 L41,135 L40,137 L46,139 L73,152 L96,163 L118,174 L140,186 L162,198 L186,212 L216,230 L240,246 L263,262 L277,272 L295,286 L308,296 L321,307 L334,318 L349,332 L362,344 L397,379 L404,387 L414,398 L423,409 L433,420 L441,431 L440,442 L432,486 L425,513 L417,537 L412,554 L410,558 L406,556 L397,545 L388,535 L379,524 L362,507 L357,501 L349,494 L328,473 L320,466 L309,456 L298,447 L288,438 L274,427 L259,415 L241,402 L228,392 L211,380 L194,368 L179,358 L159,345 L137,331 L118,319 L91,303 L66,288 L38,272 L11,256 L-14,242 L-39,228 L-62,215 L-74,208 L-80,209 L-99,223 L-117,237 L-130,247 L-143,258 L-157,270 L-170,282 L-178,289 L-193,303 L-235,345 L-234,348 L-215,362 L-201,373 L-180,389 L-161,403 L-147,414 L-130,427 L-117,437 L-100,450 L-79,466 L-67,475 L-51,487 L-30,503 L-10,518 L4,529 L22,543 L41,557 L58,570 L74,582 L95,598 L115,613 L126,622 L139,632 L155,645 L172,658 L185,669 L199,680 L210,689 L224,701 L234,709 L248,721 L260,732 L271,741 L285,754 L293,761 L303,769 L302,774 L292,788 L282,801 L272,814 L263,824 L256,833 L245,846 L239,853 L234,852 L212,839 L188,825 L170,814 L154,804 L135,792 L114,778 L102,770 L63,744 L46,732 L28,719 L11,707 L-8,693 L-27,679 L-48,663 L-62,652 L-76,641 L-90,630 L-105,618 L-119,607 L-133,595 L-147,583 L-161,571 L-171,562 L-179,555 L-189,546 L-201,535 L-217,520 L-225,513 L-238,500 L-246,493 L-277,462 L-284,454 L-294,444 L-301,436 L-304,436 L-316,456 L-330,480 L-345,508 L-361,541 L-376,576 L-393,619 L-397,629 L-396,634 L-383,652 L-369,670 L-357,684 L-346,697 L-339,705 L-330,715 L-319,727 L-290,756 L-282,763 L-266,778 L-254,789 L-240,801 L-229,810 L-214,823 L-201,833 L-184,846 L-164,861 L-144,875 L-124,889 L-81,918 L-58,933 L-37,946 L-24,954 L-1,968 L16,978 L44,994 L68,1007 L72,1009 L70,1013 L56,1025 L46,1033 L28,1047 L12,1059 L-2,1069 L-20,1082 L-23,1083 L-44,1076 L-70,1065 L-103,1050 L-131,1036 L-154,1023 L-181,1007 L-211,987 L-228,975 L-246,961 L-260,950 L-274,938 L-282,931 L-292,922 L-300,915 L-341,874 L-348,866 L-360,853 L-369,842 L-382,827 L-390,817 L-403,800 L-417,782 L-428,766 L-433,758 L-435,764 L-443,806 L-449,842 L-453,868 L-456,890 L-460,930 L-462,960 L-463,1026 L-468,1022 L-479,1008 L-492,990 L-507,967 L-520,945 L-534,918 L-547,892 L-554,875 L-558,865 L-567,840 L-570,832 L-577,811 L-581,795 L-589,758 L-595,722 L-599,688 L-600,664 L-600,613 L-598,575 L-593,537 L-587,505 L-579,470 L-571,445 L-562,418 L-551,390 L-538,361 L-526,337 L-512,313 L-499,292 L-491,280 L-479,263 L-470,251 L-460,238 L-449,225 L-440,215 L-433,207 L-422,195 L-396,169 L-388,162 L-373,149 L-360,138 L-343,125 L-328,114 L-312,103 L-293,91 L-269,77 L-251,67 L-228,56 L-201,44 L-177,35 L-163,30 L-146,25 L-115,17 L-95,12 L-55,5 L-28,2 Z " fill="#248444" transform="translate(1298,241)"/>
    <path d="M0,0 L5,1 L12,16 L17,27 L23,45 L29,57 L33,68 L14,78 L-13,92 L-40,108 L-62,122 L-81,135 L-100,149 L-114,160 L-125,169 L-138,180 L-149,189 L-165,204 L-175,213 L-199,237 L-206,245 L-217,257 L-226,268 L-235,278 L-245,291 L-259,309 L-273,329 L-286,349 L-300,372 L-313,395 L-327,422 L-341,451 L-356,488 L-366,516 L-373,537 L-379,558 L-387,589 L-394,623 L-397,644 L-399,655 L-402,680 L-405,719 L-406,735 L-406,787 L-403,835 L-399,869 L-390,918 L-381,956 L-374,979 L-370,993 L-360,1022 L-345,1060 L-336,1080 L-324,1105 L-310,1132 L-294,1159 L-282,1179 L-264,1206 L-251,1224 L-239,1240 L-226,1256 L-215,1269 L-206,1280 L-190,1297 L-179,1309 L-161,1327 L-153,1334 L-145,1342 L-134,1351 L-124,1360 L-114,1368 L-100,1379 L-83,1392 L-66,1404 L-42,1420 L-23,1432 L5,1448 L32,1462 L56,1474 L81,1485 L114,1498 L155,1512 L187,1521 L211,1527 L234,1532 L281,1540 L310,1543 L347,1546 L418,1546 L440,1545 L492,1539 L535,1532 L564,1525 L593,1518 L622,1509 L653,1498 L681,1487 L717,1471 L751,1454 L774,1441 L795,1429 L828,1407 L847,1394 L865,1380 L879,1369 L896,1355 L910,1343 L925,1329 L933,1321 L941,1314 L953,1301 L963,1291 L970,1283 L983,1268 L992,1257 L1006,1240 L1020,1221 L1031,1206 L1047,1182 L1059,1163 L1071,1142 L1081,1123 L1086,1125 L1146,1155 L1147,1159 L1133,1187 L1117,1214 L1103,1236 L1092,1252 L1079,1270 L1069,1283 L1058,1297 L1049,1308 L1038,1321 L1027,1333 L1020,1341 L1006,1356 L978,1384 L970,1391 L956,1404 L945,1413 L930,1426 L916,1437 L898,1451 L880,1464 L847,1486 L828,1498 L804,1512 L778,1526 L759,1536 L731,1549 L695,1564 L668,1574 L628,1587 L605,1594 L586,1599 L543,1608 L491,1616 L450,1620 L419,1622 L348,1622 L314,1620 L268,1615 L236,1610 L199,1603 L155,1592 L112,1579 L74,1565 L32,1547 L4,1534 L-25,1519 L-49,1505 L-71,1492 L-93,1478 L-109,1467 L-128,1453 L-146,1439 L-160,1428 L-177,1414 L-187,1405 L-195,1398 L-208,1386 L-218,1377 L-243,1352 L-250,1344 L-264,1329 L-273,1318 L-282,1308 L-293,1294 L-305,1279 L-319,1260 L-335,1237 L-346,1220 L-359,1199 L-373,1175 L-387,1149 L-402,1119 L-418,1082 L-429,1054 L-441,1020 L-449,995 L-453,981 L-459,959 L-468,917 L-471,902 L-475,876 L-479,836 L-482,795 L-482,736 L-479,688 L-477,671 L-473,638 L-465,592 L-458,561 L-454,547 L-452,538 L-445,514 L-433,478 L-423,451 L-410,421 L-397,393 L-383,365 L-369,341 L-360,325 L-349,308 L-331,281 L-321,267 L-305,246 L-294,232 L-283,219 L-274,208 L-259,192 L-252,184 L-213,145 L-205,138 L-193,127 L-182,118 L-168,106 L-151,93 L-134,80 L-114,66 L-96,54 L-77,42 L-55,29 L-37,19 L-14,7 Z " fill="#29426E" transform="translate(964,100)"/>
    <path d="M0,0 L2,1 L-6,9 L-8,9 L-10,13 L-14,15 L-16,19 L-25,28 L-28,29 L-35,37 L-48,50 L-53,55 L-68,70 L-70,70 L-70,74 L-68,74 L-69,76 L-73,73 L-71,69 L-21,19 L-13,12 Z " fill="#E1F8EB" transform="translate(1135,515)"/>
    <path d="M0,0 L68,0 L101,3 L101,4 L63,3 L42,2 L14,2 L6,3 L-8,3 L-10,4 L-28,3 L-28,2 Z " fill="#44835A" transform="translate(1298,241)"/>
    <path d="M0,0 L1,0 L1,17 L-3,65 L-4,124 L-6,123 L-5,57 L-3,27 Z " fill="#CAEAD7" transform="translate(840,1144)"/>
    <path d="M0,0 L2,1 L-6,11 L-17,24 L-26,35 L-37,48 L-41,49 L-43,47 L-39,47 L-39,45 L-37,45 L-35,41 L-33,41 L-31,37 L-24,28 L-22,28 L-21,24 L-18,21 L-16,21 L-14,16 L-13,14 L-10,14 L-8,9 Z " fill="#3E8056" transform="translate(1575,1045)"/>
    <path d="M0,0 L1,3 L-9,13 L-16,21 L-21,26 L-30,34 L-32,33 L-21,21 Z " fill="#3B8053" transform="translate(897,415)"/>
    <path d="M0,0 L0,3 L-4,9 L-27,32 L-32,33 L-26,26 L-13,14 L-4,4 Z " fill="#3B4D6B" transform="translate(1920,1398)"/>
  </g>

  <!-- Wordmark: GRUPO CHRYTSA (path-based, always renders) -->
  <path d="M87.103 193.491 L90.157 193.491 L94.912 211.465 L91.143 212.764 C88.630 207.096 85.746 203.056 82.491 200.629 C79.222 198.217 75.525 197.003 71.399 197.003 C65.475 197.003 60.492 199.473 56.480 204.398 C52.469 209.323 50.456 215.191 50.456 222.000 C50.456 226.897 51.484 231.394 53.540 235.491 C55.596 239.574 58.336 242.701 61.777 244.842 C65.218 246.983 68.858 248.054 72.712 248.054 C75.196 248.054 77.566 247.597 79.822 246.698 C82.063 245.798 83.890 244.728 85.289 243.471 C86.317 242.529 87.017 241.487 87.388 240.359 C87.745 239.217 87.916 237.633 87.888 235.605 L87.888 232.864 C87.888 230.666 87.631 229.110 87.117 228.196 C86.603 227.282 85.861 226.626 84.918 226.240 C84.190 225.940 82.249 225.783 79.065 225.783 L79.065 222.272 L102.620 222.272 L102.620 225.783 L100.693 225.783 C99.052 225.783 97.938 225.940 97.338 226.269 C96.739 226.583 96.296 227.083 96.011 227.739 C95.740 228.410 95.597 229.724 95.597 231.665 L95.597 251.823 L91.485 251.823 L89.273 246.684 C86.917 248.382 84.418 249.696 81.778 250.638 C77.809 252.051 73.883 252.765 70.014 252.765 C62.162 252.765 55.453 249.895 49.856 244.142 C44.260 238.404 41.462 231.251 41.462 222.671 C41.462 214.163 44.289 207.011 49.957 201.229 C55.624 195.447 62.405 192.549 70.300 192.549 C72.284 192.549 74.240 192.749 76.167 193.134 C78.094 193.520 79.850 194.076 81.435 194.790 C82.634 195.319 84.033 196.189 85.632 197.374 Z Z M109.716 193.491 L139.709 193.491 C145.406 193.491 149.717 194.091 152.629 195.276 C155.542 196.461 157.783 198.174 159.353 200.415 C160.923 202.656 161.708 205.255 161.708 208.210 C161.708 211.250 160.952 213.949 159.424 216.304 C157.897 218.660 155.698 220.516 152.829 221.872 C149.959 223.228 146.148 223.928 141.408 223.985 L156.669 242.786 C157.925 244.357 158.739 245.313 159.139 245.670 C160.110 246.541 161.138 247.197 162.208 247.640 C163.279 248.082 164.478 248.311 165.820 248.311 L166.862 248.311 L166.862 251.823 L153.571 251.823 L132.243 223.985 L124.791 223.985 L124.791 241.972 C124.791 243.971 124.862 245.227 124.991 245.727 C125.305 246.669 125.790 247.340 126.461 247.726 C127.147 248.111 128.460 248.311 130.416 248.311 L131.900 248.311 L131.900 251.823 L109.716 251.823 L109.716 248.311 L111.714 248.311 C113.213 248.311 114.213 248.211 114.727 248.025 C115.240 247.826 115.697 247.483 116.097 246.998 C116.511 246.512 116.796 245.898 116.953 245.142 C117.011 244.842 117.053 243.443 117.082 240.945 L117.082 202.742 C117.082 201.043 116.911 199.830 116.582 199.088 C116.254 198.345 115.783 197.817 115.183 197.489 C114.598 197.160 113.556 197.003 112.085 197.003 L109.716 197.003 Z Z M124.791 198.031 L124.791 220.045 L136.740 220.045 C140.780 220.045 143.635 219.788 145.263 219.288 C147.604 218.617 149.431 217.389 150.787 215.605 C152.129 213.806 152.800 211.536 152.800 208.766 C152.800 206.411 152.315 204.441 151.344 202.828 C150.374 201.229 149.046 200.030 147.376 199.230 C145.691 198.431 143.193 198.031 139.852 198.031 Z Z M170.460 193.491 L192.987 193.491 L192.987 197.003 L191.474 197.003 C189.647 197.003 188.333 197.189 187.548 197.546 C186.934 197.831 186.477 198.302 186.163 198.973 C185.864 199.644 185.707 200.986 185.707 202.999 L185.707 229.238 C185.707 233.921 186.278 237.390 187.405 239.645 C188.548 241.901 190.432 243.800 193.073 245.327 C195.728 246.855 198.626 247.626 201.796 247.626 C204.993 247.626 208.006 246.798 210.875 245.156 C213.730 243.514 215.729 241.573 216.871 239.317 C218.027 237.062 218.599 233.507 218.599 228.639 L218.599 203.427 C218.599 201.572 218.413 200.230 218.056 199.416 C217.685 198.588 217.142 197.988 216.400 197.589 C215.657 197.203 214.515 197.003 212.945 197.003 L211.318 197.003 L211.318 193.491 L230.761 193.491 L230.761 197.003 L229.419 197.003 C227.221 197.003 225.708 197.417 224.880 198.260 C224.066 199.102 223.652 200.672 223.652 202.999 L223.652 229.866 C223.652 234.763 222.724 238.860 220.883 242.129 C219.041 245.399 216.357 247.997 212.845 249.910 C209.333 251.809 205.236 252.765 200.568 252.765 C196.157 252.765 192.131 251.794 188.462 249.838 C184.807 247.897 182.123 245.456 180.396 242.544 C178.683 239.631 177.826 235.977 177.826 231.579 L177.826 202.999 C177.826 201.157 177.655 199.858 177.327 199.116 C176.998 198.374 176.513 197.845 175.870 197.503 C175.228 197.174 174.129 197.003 172.544 197.003 L170.460 197.003 Z Z M237.857 193.491 L260.912 193.491 C267.907 193.491 272.733 193.934 275.388 194.833 C278.700 195.904 281.441 197.717 283.611 200.287 C285.767 202.871 286.852 206.140 286.852 210.108 C286.852 213.492 286.024 216.419 284.382 218.888 C282.397 221.843 279.985 223.956 277.158 225.198 C274.332 226.440 269.863 227.068 263.782 227.068 L253.103 227.068 L253.103 241.887 C253.103 244.128 253.232 245.541 253.475 246.127 C253.817 246.940 254.274 247.512 254.845 247.826 C255.430 248.154 256.615 248.311 258.385 248.311 L260.384 248.311 L260.384 251.823 L237.857 251.823 L237.857 248.311 L239.227 248.311 C241.140 248.311 242.453 248.154 243.139 247.826 C243.838 247.512 244.338 247.012 244.652 246.341 C244.980 245.656 245.137 244.371 245.137 242.486 L245.137 202.571 C245.137 200.715 244.995 199.473 244.695 198.845 C244.409 198.202 243.924 197.746 243.239 197.446 C242.568 197.146 241.226 197.003 239.227 197.003 L237.857 197.003 Z Z M253.103 198.031 L253.103 222.529 L262.111 222.529 C266.666 222.529 269.849 222.129 271.676 221.315 C273.518 220.501 275.031 219.102 276.231 217.104 C277.430 215.105 278.029 212.778 278.029 210.094 C278.029 207.153 277.329 204.712 275.931 202.742 C274.531 200.772 272.633 199.444 270.234 198.745 C268.564 198.274 265.295 198.031 260.441 198.031 Z Z M322.199 192.549 C327.524 192.549 332.335 193.834 336.632 196.389 C341.286 199.145 344.869 202.714 347.367 207.110 C349.866 211.508 351.108 216.604 351.108 222.386 C351.108 231.337 348.324 238.646 342.742 244.299 C337.160 249.938 330.051 252.765 321.399 252.765 C311.749 252.765 304.111 249.367 298.487 242.586 C293.875 237.047 291.577 230.423 291.577 222.714 C291.577 216.989 292.876 211.850 295.474 207.296 C298.058 202.756 301.741 199.159 306.510 196.518 C311.278 193.877 316.517 192.549 322.199 192.549 Z M322.185 197.089 C317.816 197.089 314.076 198.088 310.935 200.073 C307.809 202.057 305.296 204.983 303.397 208.838 C301.513 212.707 300.571 217.475 300.571 223.142 C300.571 228.553 301.499 233.150 303.355 236.919 C305.225 240.688 307.723 243.571 310.849 245.570 C313.990 247.569 317.517 248.568 321.428 248.568 C325.311 248.568 328.752 247.583 331.750 245.627 C334.748 243.671 337.217 240.588 339.173 236.376 C341.129 232.165 342.114 227.497 342.114 222.343 C342.114 217.118 341.129 212.350 339.173 208.010 C337.503 204.284 335.276 201.529 332.506 199.759 C329.737 197.974 326.296 197.089 322.185 197.089" fill="#27426E"/>
  <path d="M46.911 271.480 L49.924 271.480 L55.220 290.952 L51.365 292.037 C49.267 287.569 47.682 284.557 46.583 283.029 C44.799 280.560 42.572 278.604 39.902 277.162 C37.232 275.720 34.291 274.992 31.079 274.992 C27.311 274.992 23.827 276.005 20.658 278.018 C17.489 280.031 14.919 282.986 12.949 286.869 C10.979 290.767 9.994 295.149 9.994 300.017 C9.994 305.014 10.993 309.483 12.992 313.394 C14.990 317.320 17.689 320.332 21.086 322.445 C24.498 324.558 28.167 325.614 32.107 325.614 C35.819 325.614 39.616 324.558 43.485 322.445 C47.368 320.318 50.737 317.349 53.578 313.537 L56.933 315.835 C55.206 318.405 53.336 320.575 51.323 322.359 C48.154 325.229 44.842 327.342 41.415 328.712 C37.989 330.068 34.220 330.753 30.123 330.753 C21.058 330.753 13.691 327.399 8.024 320.703 C3.341 315.136 1.000 308.512 1.000 300.831 C1.000 295.192 2.299 290.067 4.883 285.499 C7.481 280.916 11.064 277.290 15.619 274.592 C20.173 271.894 25.098 270.538 30.366 270.538 C33.178 270.538 35.791 270.923 38.203 271.694 C40.616 272.465 43.071 273.707 45.541 275.406 Z Z M63.757 271.480 L86.284 271.480 L86.284 274.992 L84.743 274.992 C82.944 274.992 81.673 275.163 80.902 275.491 C80.131 275.834 79.603 276.419 79.289 277.262 C79.047 277.875 78.918 279.175 78.918 281.159 L78.918 297.434 L109.240 297.434 L109.240 281.587 C109.240 279.432 109.169 278.133 109.026 277.676 C108.812 276.791 108.326 276.105 107.598 275.663 C106.856 275.220 105.742 274.992 104.243 274.992 L101.959 274.992 L101.959 271.480 L124.230 271.480 L124.230 274.992 L122.217 274.992 C120.661 274.992 119.547 275.163 118.905 275.520 C118.248 275.863 117.777 276.334 117.520 276.933 C117.249 277.547 117.120 278.832 117.120 280.816 L117.120 320.561 C117.120 322.773 117.263 324.172 117.535 324.772 C117.820 325.372 118.377 325.800 119.205 326.043 C119.719 326.214 121.389 326.299 124.230 326.299 L124.230 329.811 L101.959 329.811 L101.959 326.299 L103.587 326.299 C105.628 326.299 106.999 326.157 107.684 325.886 C108.355 325.614 108.798 325.172 108.983 324.558 C109.154 324.087 109.240 322.616 109.240 320.132 L109.240 301.973 L78.918 301.973 L78.918 320.561 C78.918 322.773 79.061 324.172 79.361 324.786 C79.646 325.400 80.217 325.828 81.059 326.043 C81.673 326.214 83.415 326.299 86.284 326.299 L86.284 329.811 L63.757 329.811 L63.757 326.299 L65.185 326.299 C67.355 326.299 68.711 326.185 69.253 325.942 C69.810 325.700 70.238 325.243 70.552 324.572 C70.880 323.901 71.038 322.702 71.038 320.989 L71.038 280.816 C71.038 279.003 70.895 277.747 70.595 277.047 C70.310 276.348 69.838 275.834 69.225 275.491 C68.597 275.163 67.554 274.992 66.098 274.992 L63.757 274.992 Z Z M132.439 271.480 L162.432 271.480 C168.128 271.480 172.440 272.079 175.352 273.264 C178.264 274.449 180.506 276.162 182.076 278.404 C183.646 280.645 184.431 283.243 184.431 286.198 C184.431 289.239 183.675 291.937 182.147 294.293 C180.620 296.648 178.421 298.504 175.552 299.860 C172.682 301.217 168.871 301.916 164.131 301.973 L179.392 320.775 C180.648 322.345 181.462 323.301 181.862 323.658 C182.833 324.529 183.860 325.186 184.931 325.628 C186.002 326.071 187.201 326.299 188.543 326.299 L189.585 326.299 L189.585 329.811 L176.294 329.811 L154.966 301.973 L147.514 301.973 L147.514 319.961 C147.514 321.960 147.585 323.216 147.714 323.716 C148.028 324.658 148.513 325.329 149.184 325.714 C149.869 326.100 151.183 326.299 153.139 326.299 L154.623 326.299 L154.623 329.811 L132.439 329.811 L132.439 326.299 L134.437 326.299 C135.936 326.299 136.935 326.200 137.449 326.014 C137.963 325.814 138.420 325.471 138.820 324.986 C139.234 324.501 139.519 323.887 139.677 323.130 C139.733 322.830 139.776 321.431 139.805 318.933 L139.805 280.731 C139.805 279.032 139.633 277.818 139.305 277.076 C138.977 276.334 138.506 275.806 137.906 275.477 C137.321 275.149 136.279 274.992 134.808 274.992 L132.439 274.992 Z Z M147.514 276.020 L147.514 298.033 L159.463 298.033 C163.503 298.033 166.358 297.776 167.986 297.277 C170.327 296.606 172.154 295.378 173.510 293.593 C174.852 291.795 175.523 289.525 175.523 286.755 C175.523 284.400 175.038 282.430 174.067 280.816 C173.096 279.217 171.769 278.018 170.099 277.219 C168.414 276.419 165.915 276.020 162.575 276.020 Z Z M190.170 271.480 L211.998 271.480 L211.998 274.992 L209.528 274.992 C208.030 274.992 207.059 275.135 206.631 275.420 C206.188 275.691 205.974 276.162 205.974 276.805 C205.974 277.361 206.245 278.133 206.773 279.075 C206.916 279.303 207.087 279.631 207.316 280.046 L218.708 301.031 L231.299 279.260 C231.799 278.361 232.099 277.776 232.199 277.504 C232.299 277.233 232.341 276.962 232.341 276.676 C232.341 276.291 232.242 275.963 232.027 275.691 C231.827 275.420 231.499 275.220 231.042 275.077 C230.771 275.020 229.986 274.992 228.701 274.992 L226.531 274.992 L226.531 271.480 L244.519 271.480 L244.519 274.992 C242.934 274.963 241.749 275.063 240.978 275.292 C240.222 275.506 239.594 275.863 239.108 276.319 C238.608 276.791 237.923 277.761 237.038 279.246 L221.192 305.599 L221.192 320.304 C221.192 322.445 221.363 323.830 221.720 324.472 C222.063 325.100 222.619 325.571 223.362 325.857 C224.118 326.157 225.874 326.299 228.644 326.299 L228.644 329.811 L205.860 329.811 L205.860 326.299 L207.616 326.299 C209.486 326.299 210.742 326.128 211.370 325.800 C211.998 325.471 212.484 324.929 212.855 324.172 C213.097 323.644 213.226 322.359 213.226 320.304 L213.240 307.141 L197.822 279.703 C196.595 277.490 195.567 276.162 194.753 275.734 C193.925 275.292 192.398 275.049 190.170 274.992 Z Z M341.195 271.480 L344.208 271.480 L348.676 289.468 L344.822 290.667 C342.366 285.642 339.097 281.673 335.028 278.789 C331.673 276.376 327.962 275.163 323.893 275.163 C321.437 275.163 319.225 275.606 317.269 276.477 C315.327 277.361 313.857 278.489 312.886 279.888 C311.901 281.273 311.416 282.701 311.416 284.143 C311.416 285.456 311.787 286.712 312.544 287.940 C313.300 289.168 314.457 290.253 315.998 291.181 C317.526 292.109 320.053 293.094 323.550 294.122 L334.486 297.262 C335.828 297.648 337.769 298.404 340.310 299.518 C342.866 300.631 344.850 301.802 346.263 303.044 C347.691 304.286 348.805 305.799 349.604 307.598 C350.418 309.397 350.817 311.338 350.817 313.423 C350.817 318.048 348.790 322.088 344.736 325.557 C340.682 329.026 335.428 330.753 328.990 330.753 C325.678 330.753 322.708 330.268 320.081 329.312 C317.469 328.355 314.642 326.656 311.601 324.201 L309.674 329.811 L306.733 329.811 L302.850 308.826 L306.705 308.055 C308.132 311.909 310.017 315.193 312.387 317.877 C314.742 320.575 317.355 322.602 320.210 323.987 C323.079 325.357 325.992 326.043 328.947 326.043 C332.972 326.043 336.499 324.829 339.511 322.416 C342.024 320.389 343.280 318.005 343.280 315.250 C343.280 312.723 342.366 310.653 340.553 309.040 C338.712 307.427 335.414 305.928 330.674 304.543 L320.224 301.545 C314.357 299.846 310.217 297.676 307.818 295.035 C305.420 292.394 304.221 289.353 304.221 285.941 C304.221 283.272 305.006 280.802 306.562 278.532 C308.118 276.262 310.516 274.364 313.757 272.836 C316.983 271.309 320.524 270.538 324.378 270.538 C327.605 270.538 330.703 271.094 333.658 272.222 C335.742 273.007 337.669 274.121 339.425 275.577 Z Z M380.040 271.480 L387.021 271.480 L405.094 320.261 C405.980 322.702 406.879 324.329 407.793 325.114 C408.692 325.900 409.920 326.299 411.447 326.299 L412.375 326.299 L412.375 329.811 L391.632 329.811 L391.632 326.299 C392.303 326.242 392.946 326.214 393.588 326.214 C394.930 326.214 395.815 326.071 396.229 325.800 C397.043 325.272 397.442 324.601 397.442 323.801 C397.442 323.216 397.057 321.774 396.272 319.504 L392.332 308.226 L371.289 308.226 L366.749 320.832 C366.278 322.145 366.050 323.045 366.050 323.544 C366.050 324.101 366.192 324.586 366.478 325.000 C366.778 325.429 367.178 325.743 367.677 325.942 C368.177 326.157 368.991 326.257 370.104 326.257 C370.861 326.257 371.475 326.271 371.946 326.299 L371.946 329.811 L354.500 329.811 L354.500 326.299 C356.114 326.299 357.284 326.142 357.998 325.814 C358.698 325.500 359.326 324.986 359.854 324.272 C360.382 323.573 361.082 322.074 361.953 319.790 Z Z M372.774 304.115 L390.776 304.115 L381.796 279.017 Z Z M250.072 269.510 L252.984 269.510 L253.399 271.480 L289.060 271.480 L289.388 269.510 L292.472 269.510 L298.639 286.641 L294.870 288.012 C293.057 283.443 290.916 280.231 288.432 278.375 C285.948 276.519 282.764 275.591 278.895 275.591 C277.268 275.591 276.311 275.649 276.011 275.777 C275.698 275.906 275.483 276.120 275.355 276.434 C275.226 276.733 275.169 277.704 275.169 279.346 L275.169 319.790 C275.169 321.717 275.269 323.030 275.483 323.701 C275.683 324.372 275.983 324.886 276.383 325.243 C276.768 325.614 277.296 325.871 277.982 326.028 C278.653 326.185 280.180 326.271 282.536 326.299 L282.536 329.811 L260.180 329.811 L260.180 326.299 C262.664 326.271 264.177 326.185 264.748 326.043 C265.719 325.771 266.418 325.243 266.832 324.458 C267.246 323.673 267.460 322.231 267.460 320.132 L267.460 278.803 C267.460 277.533 267.403 276.748 267.275 276.462 C267.146 276.191 266.903 275.977 266.561 275.820 C266.218 275.663 265.505 275.591 264.419 275.591 C261.379 275.591 258.952 275.977 257.124 276.762 C255.311 277.547 253.584 278.861 251.971 280.731 C250.357 282.601 248.987 285.028 247.845 288.012 L244.076 286.641 Z" fill="#27426E"/>
  <text x="206.7" y="362" text-anchor="middle" font-family="'Montserrat', sans-serif" font-weight="500" font-size="18" letter-spacing="10" fill="#248444">A S E S O R E S</text>
</svg>
