<svg xmlns="http://www.w3.org/2000/svg" viewBox="0 0 1200 627" width="1200" height="627" preserveAspectRatio="xMidYMid meet">
  <defs>
    <linearGradient id="g" x1="0" y1="0" x2="1" y2="1"><stop offset="0" stop-color="#5B9BD5"></stop><stop offset=".35" stop-color="#2B6CB0"></stop><stop offset=".7" stop-color="#1E5090"></stop><stop offset="1" stop-color="#163B6B"></stop></linearGradient>
    <linearGradient id="g2" x1="0" y1="0" x2="0" y2="1"><stop offset="0" stop-color="rgba(212,175,55,.18)"></stop><stop offset="1" stop-color="rgba(212,175,55,0)"></stop></linearGradient>
    <radialGradient id="vignette" cx="0.5" cy="0.4" r="0.8"><stop offset="0" stop-color="rgba(212,175,55,0)"></stop><stop offset="1" stop-color="rgba(0,0,0,0)"></stop></radialGradient>
    <pattern id="grain" x="0" y="0" width="80" height="80" patternUnits="userSpaceOnUse"><circle cx="10" cy="20" r=".7" fill="#5B9BD5" opacity=".06"></circle><circle cx="35" cy="50" r=".5" fill="#5B9BD5" opacity=".05"></circle><circle cx="60" cy="15" r=".6" fill="#5B9BD5" opacity=".06"></circle><circle cx="70" cy="65" r=".4" fill="#5B9BD5" opacity=".04"></circle><circle cx="20" cy="70" r=".5" fill="#5B9BD5" opacity=".05"></circle></pattern>
    <clipPath id="crownClip"><circle cx="60" cy="50" r="36"></circle></clipPath><clipPath id="sphereClip"><circle cx="50" cy="49" r="38"></circle></clipPath>
    <symbol id="sphere" viewBox="0 0 2376 1760"><path d="M0,0 L8,0 L30,11 L47,21 L65,32 L79,42 L91,50 L107,62 L121,73 L135,85 L146,94 L159,106 L167,114 L175,121 L182,128 L189,136 L202,150 L209,158 L222,174 L234,190 L247,208 L260,228 L275,253 L288,277 L300,301 L313,331 L322,356 L328,373 L332,388 L336,401 L341,422 L345,438 L353,485 L356,512 L358,534 L358,597 L356,627 L354,646 L348,682 L343,706 L338,727 L330,753 L318,789 L307,815 L296,839 L288,855 L278,874 L261,902 L252,916 L238,936 L226,952 L213,968 L202,981 L190,994 L181,1004 L156,1029 L148,1036 L136,1047 L125,1056 L109,1069 L90,1083 L60,1103 L42,1114 L21,1126 L-8,1141 L-33,1152 L-61,1163 L-97,1175 L-129,1184 L-167,1192 L-202,1197 L-217,1199 L-244,1201 L-313,1201 L-354,1197 L-381,1193 L-417,1186 L-452,1177 L-477,1169 L-505,1159 L-533,1147 L-558,1135 L-578,1125 L-602,1111 L-626,1096 L-637,1088 L-651,1078 L-669,1064 L-685,1051 L-696,1041 L-704,1034 L-717,1022 L-736,1003 L-743,995 L-747,990 L-747,891 L-744,853 L-739,809 L-733,771 L-730,757 L-728,757 L-717,771 L-704,787 L-692,801 L-683,811 L-674,821 L-662,834 L-632,864 L-624,871 L-610,884 L-599,893 L-586,904 L-569,917 L-550,931 L-533,943 L-512,957 L-487,972 L-469,982 L-441,997 L-419,1008 L-390,1021 L-358,1034 L-332,1044 L-328,1042 L-309,1029 L-293,1017 L-279,1007 L-261,993 L-247,982 L-236,973 L-225,964 L-211,952 L-200,942 L-192,935 L-196,932 L-223,918 L-249,904 L-266,894 L-288,882 L-311,868 L-330,856 L-352,842 L-369,831 L-386,820 L-407,806 L-427,792 L-443,781 L-461,768 L-482,752 L-499,739 L-515,726 L-526,717 L-540,705 L-554,693 L-567,681 L-575,674 L-591,658 L-599,651 L-614,635 L-623,626 L-630,618 L-639,608 L-648,597 L-662,580 L-676,561 L-678,556 L-668,529 L-650,487 L-634,453 L-621,428 L-613,414 L-611,411 L-607,413 L-561,459 L-553,466 L-543,476 L-535,483 L-520,497 L-512,504 L-502,513 L-491,522 L-479,533 L-469,541 L-455,553 L-441,564 L-424,578 L-407,591 L-392,603 L-379,613 L-361,627 L-342,641 L-323,655 L-305,668 L-285,682 L-262,698 L-247,708 L-208,734 L-183,750 L-158,766 L-131,782 L-105,797 L-79,812 L-70,818 L-66,816 L-52,801 L-43,790 L-33,779 L-24,768 L-12,753 L0,737 L13,719 L27,699 L21,692 L11,682 L3,675 L-6,666 L-14,659 L-27,647 L-37,638 L-48,629 L-59,619 L-70,610 L-79,602 L-90,593 L-107,579 L-121,568 L-135,557 L-153,543 L-168,531 L-188,516 L-199,507 L-212,497 L-233,481 L-249,469 L-266,456 L-278,447 L-294,435 L-307,425 L-320,415 L-333,405 L-354,389 L-370,377 L-386,365 L-404,351 L-425,335 L-438,325 L-451,315 L-464,305 L-481,292 L-498,279 L-505,273 L-503,269 L-491,257 L-483,250 L-474,241 L-466,234 L-454,223 L-443,214 L-433,205 L-423,197 L-412,188 L-394,174 L-388,170 L-382,172 L-355,187 L-330,201 L-302,217 L-274,233 L-245,250 L-220,265 L-201,277 L-177,292 L-135,320 L-119,331 L-105,341 L-87,354 L-74,364 L-61,374 L-50,383 L-40,391 L-26,403 L-12,415 L4,430 L19,445 L26,451 L33,459 L44,470 L51,478 L60,488 L69,499 L83,516 L93,529 L104,544 L106,545 L107,540 L121,506 L136,460 L140,446 L146,423 L153,387 L157,361 L157,354 L141,333 L128,317 L117,304 L110,296 L98,283 L61,246 L53,239 L41,228 L33,221 L22,212 L10,202 L-4,191 L-20,179 L-38,166 L-77,140 L-96,128 L-123,112 L-146,99 L-168,87 L-197,72 L-206,67 L-206,64 L-183,54 L-147,40 L-97,23 L-71,16 L-52,11 L-20,4 Z " fill="#27426E" transform="translate(1610,311)"/><path d="M0,0 L68,0 L101,3 L139,8 L163,13 L192,20 L210,25 L250,39 L274,49 L274,51 L249,56 L233,60 L209,67 L188,74 L171,79 L133,93 L108,104 L65,123 L41,135 L40,137 L46,139 L73,152 L96,163 L118,174 L140,186 L162,198 L186,212 L216,230 L240,246 L263,262 L277,272 L295,286 L308,296 L321,307 L334,318 L349,332 L362,344 L397,379 L404,387 L414,398 L423,409 L433,420 L441,431 L440,442 L432,486 L425,513 L417,537 L412,554 L410,558 L406,556 L397,545 L388,535 L379,524 L362,507 L357,501 L349,494 L328,473 L320,466 L309,456 L298,447 L288,438 L274,427 L259,415 L241,402 L228,392 L211,380 L194,368 L179,358 L159,345 L137,331 L118,319 L91,303 L66,288 L38,272 L11,256 L-14,242 L-39,228 L-62,215 L-74,208 L-80,209 L-99,223 L-117,237 L-130,247 L-143,258 L-157,270 L-170,282 L-178,289 L-193,303 L-235,345 L-234,348 L-215,362 L-201,373 L-180,389 L-161,403 L-147,414 L-130,427 L-117,437 L-100,450 L-79,466 L-67,475 L-51,487 L-30,503 L-10,518 L4,529 L22,543 L41,557 L58,570 L74,582 L95,598 L115,613 L126,622 L139,632 L155,645 L172,658 L185,669 L199,680 L210,689 L224,701 L234,709 L248,721 L260,732 L271,741 L285,754 L293,761 L303,769 L302,774 L292,788 L282,801 L272,814 L263,824 L256,833 L245,846 L239,853 L234,852 L212,839 L188,825 L170,814 L154,804 L135,792 L114,778 L102,770 L63,744 L46,732 L28,719 L11,707 L-8,693 L-27,679 L-48,663 L-62,652 L-76,641 L-90,630 L-105,618 L-119,607 L-133,595 L-147,583 L-161,571 L-171,562 L-179,555 L-189,546 L-201,535 L-217,520 L-225,513 L-238,500 L-246,493 L-277,462 L-284,454 L-294,444 L-301,436 L-304,436 L-316,456 L-330,480 L-345,508 L-361,541 L-376,576 L-393,619 L-397,629 L-396,634 L-383,652 L-369,670 L-357,684 L-346,697 L-339,705 L-330,715 L-319,727 L-290,756 L-282,763 L-266,778 L-254,789 L-240,801 L-229,810 L-214,823 L-201,833 L-184,846 L-164,861 L-144,875 L-124,889 L-81,918 L-58,933 L-37,946 L-24,954 L-1,968 L16,978 L44,994 L68,1007 L72,1009 L70,1013 L56,1025 L46,1033 L28,1047 L12,1059 L-2,1069 L-20,1082 L-23,1083 L-44,1076 L-70,1065 L-103,1050 L-131,1036 L-154,1023 L-181,1007 L-211,987 L-228,975 L-246,961 L-260,950 L-274,938 L-282,931 L-292,922 L-300,915 L-341,874 L-348,866 L-360,853 L-369,842 L-382,827 L-390,817 L-403,800 L-417,782 L-428,766 L-433,758 L-435,764 L-443,806 L-449,842 L-453,868 L-456,890 L-460,930 L-462,960 L-463,1026 L-468,1022 L-479,1008 L-492,990 L-507,967 L-520,945 L-534,918 L-547,892 L-554,875 L-558,865 L-567,840 L-570,832 L-577,811 L-581,795 L-589,758 L-595,722 L-599,688 L-600,664 L-600,613 L-598,575 L-593,537 L-587,505 L-579,470 L-571,445 L-562,418 L-551,390 L-538,361 L-526,337 L-512,313 L-499,292 L-491,280 L-479,263 L-470,251 L-460,238 L-449,225 L-440,215 L-433,207 L-422,195 L-396,169 L-388,162 L-373,149 L-360,138 L-343,125 L-328,114 L-312,103 L-293,91 L-269,77 L-251,67 L-228,56 L-201,44 L-177,35 L-163,30 L-146,25 L-115,17 L-95,12 L-55,5 L-28,2 Z " fill="#248444" transform="translate(1298,241)"/><path d="M0,0 L5,1 L12,16 L17,27 L23,45 L29,57 L33,68 L14,78 L-13,92 L-40,108 L-62,122 L-81,135 L-100,149 L-114,160 L-125,169 L-138,180 L-149,189 L-165,204 L-175,213 L-199,237 L-206,245 L-217,257 L-226,268 L-235,278 L-245,291 L-259,309 L-273,329 L-286,349 L-300,372 L-313,395 L-327,422 L-341,451 L-356,488 L-366,516 L-373,537 L-379,558 L-387,589 L-394,623 L-397,644 L-399,655 L-402,680 L-405,719 L-406,735 L-406,787 L-403,835 L-399,869 L-390,918 L-381,956 L-374,979 L-370,993 L-360,1022 L-345,1060 L-336,1080 L-324,1105 L-310,1132 L-294,1159 L-282,1179 L-264,1206 L-251,1224 L-239,1240 L-226,1256 L-215,1269 L-206,1280 L-190,1297 L-179,1309 L-161,1327 L-153,1334 L-145,1342 L-134,1351 L-124,1360 L-114,1368 L-100,1379 L-83,1392 L-66,1404 L-42,1420 L-23,1432 L5,1448 L32,1462 L56,1474 L81,1485 L114,1498 L155,1512 L187,1521 L211,1527 L234,1532 L281,1540 L310,1543 L347,1546 L418,1546 L440,1545 L492,1539 L535,1532 L564,1525 L593,1518 L622,1509 L653,1498 L681,1487 L717,1471 L751,1454 L774,1441 L795,1429 L828,1407 L847,1394 L865,1380 L879,1369 L896,1355 L910,1343 L925,1329 L933,1321 L941,1314 L953,1301 L963,1291 L970,1283 L983,1268 L992,1257 L1006,1240 L1020,1221 L1031,1206 L1047,1182 L1059,1163 L1071,1142 L1081,1123 L1086,1125 L1146,1155 L1147,1159 L1133,1187 L1117,1214 L1103,1236 L1092,1252 L1079,1270 L1069,1283 L1058,1297 L1049,1308 L1038,1321 L1027,1333 L1020,1341 L1006,1356 L978,1384 L970,1391 L956,1404 L945,1413 L930,1426 L916,1437 L898,1451 L880,1464 L847,1486 L828,1498 L804,1512 L778,1526 L759,1536 L731,1549 L695,1564 L668,1574 L628,1587 L605,1594 L586,1599 L543,1608 L491,1616 L450,1620 L419,1622 L348,1622 L314,1620 L268,1615 L236,1610 L199,1603 L155,1592 L112,1579 L74,1565 L32,1547 L4,1534 L-25,1519 L-49,1505 L-71,1492 L-93,1478 L-109,1467 L-128,1453 L-146,1439 L-160,1428 L-177,1414 L-187,1405 L-195,1398 L-208,1386 L-218,1377 L-243,1352 L-250,1344 L-264,1329 L-273,1318 L-282,1308 L-293,1294 L-305,1279 L-319,1260 L-335,1237 L-346,1220 L-359,1199 L-373,1175 L-387,1149 L-402,1119 L-418,1082 L-429,1054 L-441,1020 L-449,995 L-453,981 L-459,959 L-468,917 L-471,902 L-475,876 L-479,836 L-482,795 L-482,736 L-479,688 L-477,671 L-473,638 L-465,592 L-458,561 L-454,547 L-452,538 L-445,514 L-433,478 L-423,451 L-410,421 L-397,393 L-383,365 L-369,341 L-360,325 L-349,308 L-331,281 L-321,267 L-305,246 L-294,232 L-283,219 L-274,208 L-259,192 L-252,184 L-213,145 L-205,138 L-193,127 L-182,118 L-168,106 L-151,93 L-134,80 L-114,66 L-96,54 L-77,42 L-55,29 L-37,19 L-14,7 Z " fill="#27426E" transform="translate(964,100)"/><path d="M0,0 L2,1 L-6,9 L-8,9 L-10,13 L-14,15 L-16,19 L-25,28 L-28,29 L-35,37 L-48,50 L-53,55 L-68,70 L-70,70 L-70,74 L-68,74 L-69,76 L-73,73 L-71,69 L-21,19 L-13,12 Z " fill="#E1F8EB" transform="translate(1135,515)"/><path d="M0,0 L68,0 L101,3 L101,4 L63,3 L42,2 L14,2 L6,3 L-8,3 L-10,4 L-28,3 L-28,2 Z " fill="#44835A" transform="translate(1298,241)"/><path d="M0,0 L1,0 L1,17 L-3,65 L-4,124 L-6,123 L-5,57 L-3,27 Z " fill="#CAEAD7" transform="translate(840,1144)"/><path d="M0,0 L2,1 L-6,11 L-17,24 L-26,35 L-37,48 L-41,49 L-43,47 L-39,47 L-39,45 L-37,45 L-35,41 L-33,41 L-31,37 L-24,28 L-22,28 L-21,24 L-18,21 L-16,21 L-14,16 L-13,14 L-10,14 L-8,9 Z " fill="#3E8056" transform="translate(1575,1045)"/><path d="M0,0 L1,3 L-9,13 L-16,21 L-21,26 L-30,34 L-32,33 L-21,21 Z " fill="#3B8053" transform="translate(897,415)"/><path d="M0,0 L0,3 L-4,9 L-27,32 L-32,33 L-26,26 L-13,14 L-4,4 Z " fill="#3B4D6B" transform="translate(1920,1398)"/></symbol>
    <symbol id="crown" viewBox="0 0 2376 1760"><path d="M0,0 L8,0 L30,11 L47,21 L65,32 L79,42 L91,50 L107,62 L121,73 L135,85 L146,94 L159,106 L167,114 L175,121 L182,128 L189,136 L202,150 L209,158 L222,174 L234,190 L247,208 L260,228 L275,253 L288,277 L300,301 L313,331 L322,356 L328,373 L332,388 L336,401 L341,422 L345,438 L353,485 L356,512 L358,534 L358,597 L356,627 L354,646 L348,682 L343,706 L338,727 L330,753 L318,789 L307,815 L296,839 L288,855 L278,874 L261,902 L252,916 L238,936 L226,952 L213,968 L202,981 L190,994 L181,1004 L156,1029 L148,1036 L136,1047 L125,1056 L109,1069 L90,1083 L60,1103 L42,1114 L21,1126 L-8,1141 L-33,1152 L-61,1163 L-97,1175 L-129,1184 L-167,1192 L-202,1197 L-217,1199 L-244,1201 L-313,1201 L-354,1197 L-381,1193 L-417,1186 L-452,1177 L-477,1169 L-505,1159 L-533,1147 L-558,1135 L-578,1125 L-602,1111 L-626,1096 L-637,1088 L-651,1078 L-669,1064 L-685,1051 L-696,1041 L-704,1034 L-717,1022 L-736,1003 L-743,995 L-747,990 L-747,891 L-744,853 L-739,809 L-733,771 L-730,757 L-728,757 L-717,771 L-704,787 L-692,801 L-683,811 L-674,821 L-662,834 L-632,864 L-624,871 L-610,884 L-599,893 L-586,904 L-569,917 L-550,931 L-533,943 L-512,957 L-487,972 L-469,982 L-441,997 L-419,1008 L-390,1021 L-358,1034 L-332,1044 L-328,1042 L-309,1029 L-293,1017 L-279,1007 L-261,993 L-247,982 L-236,973 L-225,964 L-211,952 L-200,942 L-192,935 L-196,932 L-223,918 L-249,904 L-266,894 L-288,882 L-311,868 L-330,856 L-352,842 L-369,831 L-386,820 L-407,806 L-427,792 L-443,781 L-461,768 L-482,752 L-499,739 L-515,726 L-526,717 L-540,705 L-554,693 L-567,681 L-575,674 L-591,658 L-599,651 L-614,635 L-623,626 L-630,618 L-639,608 L-648,597 L-662,580 L-676,561 L-678,556 L-668,529 L-650,487 L-634,453 L-621,428 L-613,414 L-611,411 L-607,413 L-561,459 L-553,466 L-543,476 L-535,483 L-520,497 L-512,504 L-502,513 L-491,522 L-479,533 L-469,541 L-455,553 L-441,564 L-424,578 L-407,591 L-392,603 L-379,613 L-361,627 L-342,641 L-323,655 L-305,668 L-285,682 L-262,698 L-247,708 L-208,734 L-183,750 L-158,766 L-131,782 L-105,797 L-79,812 L-70,818 L-66,816 L-52,801 L-43,790 L-33,779 L-24,768 L-12,753 L0,737 L13,719 L27,699 L21,692 L11,682 L3,675 L-6,666 L-14,659 L-27,647 L-37,638 L-48,629 L-59,619 L-70,610 L-79,602 L-90,593 L-107,579 L-121,568 L-135,557 L-153,543 L-168,531 L-188,516 L-199,507 L-212,497 L-233,481 L-249,469 L-266,456 L-278,447 L-294,435 L-307,425 L-320,415 L-333,405 L-354,389 L-370,377 L-386,365 L-404,351 L-425,335 L-438,325 L-451,315 L-464,305 L-481,292 L-498,279 L-505,273 L-503,269 L-491,257 L-483,250 L-474,241 L-466,234 L-454,223 L-443,214 L-433,205 L-423,197 L-412,188 L-394,174 L-388,170 L-382,172 L-355,187 L-330,201 L-302,217 L-274,233 L-245,250 L-220,265 L-201,277 L-177,292 L-135,320 L-119,331 L-105,341 L-87,354 L-74,364 L-61,374 L-50,383 L-40,391 L-26,403 L-12,415 L4,430 L19,445 L26,451 L33,459 L44,470 L51,478 L60,488 L69,499 L83,516 L93,529 L104,544 L106,545 L107,540 L121,506 L136,460 L140,446 L146,423 L153,387 L157,361 L157,354 L141,333 L128,317 L117,304 L110,296 L98,283 L61,246 L53,239 L41,228 L33,221 L22,212 L10,202 L-4,191 L-20,179 L-38,166 L-77,140 L-96,128 L-123,112 L-146,99 L-168,87 L-197,72 L-206,67 L-206,64 L-183,54 L-147,40 L-97,23 L-71,16 L-52,11 L-20,4 Z " fill="#27426E" transform="translate(1610,311)"/><path d="M0,0 L68,0 L101,3 L139,8 L163,13 L192,20 L210,25 L250,39 L274,49 L274,51 L249,56 L233,60 L209,67 L188,74 L171,79 L133,93 L108,104 L65,123 L41,135 L40,137 L46,139 L73,152 L96,163 L118,174 L140,186 L162,198 L186,212 L216,230 L240,246 L263,262 L277,272 L295,286 L308,296 L321,307 L334,318 L349,332 L362,344 L397,379 L404,387 L414,398 L423,409 L433,420 L441,431 L440,442 L432,486 L425,513 L417,537 L412,554 L410,558 L406,556 L397,545 L388,535 L379,524 L362,507 L357,501 L349,494 L328,473 L320,466 L309,456 L298,447 L288,438 L274,427 L259,415 L241,402 L228,392 L211,380 L194,368 L179,358 L159,345 L137,331 L118,319 L91,303 L66,288 L38,272 L11,256 L-14,242 L-39,228 L-62,215 L-74,208 L-80,209 L-99,223 L-117,237 L-130,247 L-143,258 L-157,270 L-170,282 L-178,289 L-193,303 L-235,345 L-234,348 L-215,362 L-201,373 L-180,389 L-161,403 L-147,414 L-130,427 L-117,437 L-100,450 L-79,466 L-67,475 L-51,487 L-30,503 L-10,518 L4,529 L22,543 L41,557 L58,570 L74,582 L95,598 L115,613 L126,622 L139,632 L155,645 L172,658 L185,669 L199,680 L210,689 L224,701 L234,709 L248,721 L260,732 L271,741 L285,754 L293,761 L303,769 L302,774 L292,788 L282,801 L272,814 L263,824 L256,833 L245,846 L239,853 L234,852 L212,839 L188,825 L170,814 L154,804 L135,792 L114,778 L102,770 L63,744 L46,732 L28,719 L11,707 L-8,693 L-27,679 L-48,663 L-62,652 L-76,641 L-90,630 L-105,618 L-119,607 L-133,595 L-147,583 L-161,571 L-171,562 L-179,555 L-189,546 L-201,535 L-217,520 L-225,513 L-238,500 L-246,493 L-277,462 L-284,454 L-294,444 L-301,436 L-304,436 L-316,456 L-330,480 L-345,508 L-361,541 L-376,576 L-393,619 L-397,629 L-396,634 L-383,652 L-369,670 L-357,684 L-346,697 L-339,705 L-330,715 L-319,727 L-290,756 L-282,763 L-266,778 L-254,789 L-240,801 L-229,810 L-214,823 L-201,833 L-184,846 L-164,861 L-144,875 L-124,889 L-81,918 L-58,933 L-37,946 L-24,954 L-1,968 L16,978 L44,994 L68,1007 L72,1009 L70,1013 L56,1025 L46,1033 L28,1047 L12,1059 L-2,1069 L-20,1082 L-23,1083 L-44,1076 L-70,1065 L-103,1050 L-131,1036 L-154,1023 L-181,1007 L-211,987 L-228,975 L-246,961 L-260,950 L-274,938 L-282,931 L-292,922 L-300,915 L-341,874 L-348,866 L-360,853 L-369,842 L-382,827 L-390,817 L-403,800 L-417,782 L-428,766 L-433,758 L-435,764 L-443,806 L-449,842 L-453,868 L-456,890 L-460,930 L-462,960 L-463,1026 L-468,1022 L-479,1008 L-492,990 L-507,967 L-520,945 L-534,918 L-547,892 L-554,875 L-558,865 L-567,840 L-570,832 L-577,811 L-581,795 L-589,758 L-595,722 L-599,688 L-600,664 L-600,613 L-598,575 L-593,537 L-587,505 L-579,470 L-571,445 L-562,418 L-551,390 L-538,361 L-526,337 L-512,313 L-499,292 L-491,280 L-479,263 L-470,251 L-460,238 L-449,225 L-440,215 L-433,207 L-422,195 L-396,169 L-388,162 L-373,149 L-360,138 L-343,125 L-328,114 L-312,103 L-293,91 L-269,77 L-251,67 L-228,56 L-201,44 L-177,35 L-163,30 L-146,25 L-115,17 L-95,12 L-55,5 L-28,2 Z " fill="#248444" transform="translate(1298,241)"/><path d="M0,0 L5,1 L12,16 L17,27 L23,45 L29,57 L33,68 L14,78 L-13,92 L-40,108 L-62,122 L-81,135 L-100,149 L-114,160 L-125,169 L-138,180 L-149,189 L-165,204 L-175,213 L-199,237 L-206,245 L-217,257 L-226,268 L-235,278 L-245,291 L-259,309 L-273,329 L-286,349 L-300,372 L-313,395 L-327,422 L-341,451 L-356,488 L-366,516 L-373,537 L-379,558 L-387,589 L-394,623 L-397,644 L-399,655 L-402,680 L-405,719 L-406,735 L-406,787 L-403,835 L-399,869 L-390,918 L-381,956 L-374,979 L-370,993 L-360,1022 L-345,1060 L-336,1080 L-324,1105 L-310,1132 L-294,1159 L-282,1179 L-264,1206 L-251,1224 L-239,1240 L-226,1256 L-215,1269 L-206,1280 L-190,1297 L-179,1309 L-161,1327 L-153,1334 L-145,1342 L-134,1351 L-124,1360 L-114,1368 L-100,1379 L-83,1392 L-66,1404 L-42,1420 L-23,1432 L5,1448 L32,1462 L56,1474 L81,1485 L114,1498 L155,1512 L187,1521 L211,1527 L234,1532 L281,1540 L310,1543 L347,1546 L418,1546 L440,1545 L492,1539 L535,1532 L564,1525 L593,1518 L622,1509 L653,1498 L681,1487 L717,1471 L751,1454 L774,1441 L795,1429 L828,1407 L847,1394 L865,1380 L879,1369 L896,1355 L910,1343 L925,1329 L933,1321 L941,1314 L953,1301 L963,1291 L970,1283 L983,1268 L992,1257 L1006,1240 L1020,1221 L1031,1206 L1047,1182 L1059,1163 L1071,1142 L1081,1123 L1086,1125 L1146,1155 L1147,1159 L1133,1187 L1117,1214 L1103,1236 L1092,1252 L1079,1270 L1069,1283 L1058,1297 L1049,1308 L1038,1321 L1027,1333 L1020,1341 L1006,1356 L978,1384 L970,1391 L956,1404 L945,1413 L930,1426 L916,1437 L898,1451 L880,1464 L847,1486 L828,1498 L804,1512 L778,1526 L759,1536 L731,1549 L695,1564 L668,1574 L628,1587 L605,1594 L586,1599 L543,1608 L491,1616 L450,1620 L419,1622 L348,1622 L314,1620 L268,1615 L236,1610 L199,1603 L155,1592 L112,1579 L74,1565 L32,1547 L4,1534 L-25,1519 L-49,1505 L-71,1492 L-93,1478 L-109,1467 L-128,1453 L-146,1439 L-160,1428 L-177,1414 L-187,1405 L-195,1398 L-208,1386 L-218,1377 L-243,1352 L-250,1344 L-264,1329 L-273,1318 L-282,1308 L-293,1294 L-305,1279 L-319,1260 L-335,1237 L-346,1220 L-359,1199 L-373,1175 L-387,1149 L-402,1119 L-418,1082 L-429,1054 L-441,1020 L-449,995 L-453,981 L-459,959 L-468,917 L-471,902 L-475,876 L-479,836 L-482,795 L-482,736 L-479,688 L-477,671 L-473,638 L-465,592 L-458,561 L-454,547 L-452,538 L-445,514 L-433,478 L-423,451 L-410,421 L-397,393 L-383,365 L-369,341 L-360,325 L-349,308 L-331,281 L-321,267 L-305,246 L-294,232 L-283,219 L-274,208 L-259,192 L-252,184 L-213,145 L-205,138 L-193,127 L-182,118 L-168,106 L-151,93 L-134,80 L-114,66 L-96,54 L-77,42 L-55,29 L-37,19 L-14,7 Z " fill="#27426E" transform="translate(964,100)"/><path d="M0,0 L2,1 L-6,9 L-8,9 L-10,13 L-14,15 L-16,19 L-25,28 L-28,29 L-35,37 L-48,50 L-53,55 L-68,70 L-70,70 L-70,74 L-68,74 L-69,76 L-73,73 L-71,69 L-21,19 L-13,12 Z " fill="#E1F8EB" transform="translate(1135,515)"/><path d="M0,0 L68,0 L101,3 L101,4 L63,3 L42,2 L14,2 L6,3 L-8,3 L-10,4 L-28,3 L-28,2 Z " fill="#44835A" transform="translate(1298,241)"/><path d="M0,0 L1,0 L1,17 L-3,65 L-4,124 L-6,123 L-5,57 L-3,27 Z " fill="#CAEAD7" transform="translate(840,1144)"/><path d="M0,0 L2,1 L-6,11 L-17,24 L-26,35 L-37,48 L-41,49 L-43,47 L-39,47 L-39,45 L-37,45 L-35,41 L-33,41 L-31,37 L-24,28 L-22,28 L-21,24 L-18,21 L-16,21 L-14,16 L-13,14 L-10,14 L-8,9 Z " fill="#3E8056" transform="translate(1575,1045)"/><path d="M0,0 L1,3 L-9,13 L-16,21 L-21,26 L-30,34 L-32,33 L-21,21 Z " fill="#3B8053" transform="translate(897,415)"/><path d="M0,0 L0,3 L-4,9 L-27,32 L-32,33 L-26,26 L-13,14 L-4,4 Z " fill="#3B4D6B" transform="translate(1920,1398)"/></symbol>
  </defs>

    <rect id="bg" width="1200" height="627" fill="#FFFFFF"></rect>
    
    <g id="photo">
      <rect x="0" y="0" width="1200" height="344.85" fill="#3F4858"></rect>
      <pattern id="ph" x="0" y="0" width="20" height="20" patternUnits="userSpaceOnUse"><line x1="0" y1="20" x2="20" y2="0" stroke="#566173" stroke-width="2"></line></pattern>
      <rect x="0" y="0" width="1200" height="344.85" fill="url(#ph)"></rect>
      <g transform="translate(600,172.425)">
        <rect x="-180" y="-30" width="360" height="60" fill="#27426E" stroke="#2B6CB0" stroke-width="1"></rect>
        <text y="6" text-anchor="middle" font-family="Inter,Arial,sans-serif" font-size="16" fill="#9CA8B8" letter-spacing="3">▢ [FOTO EQUIPO PROFESIONAL]</text>
      </g>
    </g>
    
    <g id="band">
      <rect x="0" y="344.85" width="1200" height="110" fill="#2B6CB0"></rect>
      <text x="600" y="386.85" text-anchor="middle" font-family="Inter,Arial,sans-serif" font-weight="700" font-size="24" fill="#27426E" letter-spacing="6">ESTAMOS CONTRATANDO</text>
      <text x="600" y="422.85" text-anchor="middle" font-family="Cinzel,Georgia,serif" font-weight="600" font-size="32" fill="#27426E">Contador Senior</text>
      <text x="600" y="444.85" text-anchor="middle" font-family="Inter,Arial,sans-serif" font-weight="500" font-size="13" fill="#27426E" letter-spacing="2">100% remoto · Puerto Plata, RD · 5+ años</text>
    </g>
    
    <g id="cta" transform="translate(600,514.85)">
      <text text-anchor="middle" font-family="Inter,Arial,sans-serif" font-weight="500" font-size="22" fill="#5B9BD5" letter-spacing="2">📧 talento@huyghusrl.com</text>
    </g>
    
    <g id="grouphint" transform="translate(600,537)">
      <text text-anchor="middle" font-family="Inter,Arial,sans-serif" font-size="12" fill="#6B7A8C" letter-spacing="3">MIEMBRO · GRUPO CHRYTSA &amp;nbsp;↔&amp;nbsp; HUYGHU &amp; ASOCIADOS</text>
    </g>
    
    <g id="logo">
      <use href="#crown" x="60" y="511" width="67.2" height="56"></use>
      <text x="141.2" y="546.7" font-family="Cinzel,Georgia,serif" font-weight="600" font-size="22" fill="#5B9BD5" letter-spacing="1.3199999999999998">GRUPO CHRYTSA</text>
      <text x="141.2" y="564.7" font-family="Inter,Arial,sans-serif" font-weight="500" font-size="10" fill="#1E5090" letter-spacing="3.2">ASESORES</text>
      <text x="1140" y="563" text-anchor="end" font-family="JetBrains Mono,monospace" font-size="11" fill="#163B6B" letter-spacing="1.98">@grupochrytsa</text>
    </g>
  
  </svg>