<svg xmlns="http://www.w3.org/2000/svg" viewBox="0 0 1080 1080" width="1080" height="1080" preserveAspectRatio="xMidYMid meet">
  <defs>
    <linearGradient id="g" x1="0" y1="0" x2="1" y2="1"><stop offset="0" stop-color="#5B9BD5"></stop><stop offset=".35" stop-color="#2B6CB0"></stop><stop offset=".7" stop-color="#1E5090"></stop><stop offset="1" stop-color="#163B6B"></stop></linearGradient>
    <linearGradient id="g2" x1="0" y1="0" x2="0" y2="1"><stop offset="0" stop-color="rgba(212,175,55,.18)"></stop><stop offset="1" stop-color="rgba(212,175,55,0)"></stop></linearGradient>
    <radialGradient id="vignette" cx="0.5" cy="0.4" r="0.8"><stop offset="0" stop-color="rgba(212,175,55,0)"></stop><stop offset="1" stop-color="rgba(0,0,0,.45)"></stop></radialGradient>
    <pattern id="grain" x="0" y="0" width="80" height="80" patternUnits="userSpaceOnUse"><circle cx="10" cy="20" r=".7" fill="#5B9BD5" opacity=".06"></circle><circle cx="35" cy="50" r=".5" fill="#5B9BD5" opacity=".05"></circle><circle cx="60" cy="15" r=".6" fill="#5B9BD5" opacity=".06"></circle><circle cx="70" cy="65" r=".4" fill="#5B9BD5" opacity=".04"></circle><circle cx="20" cy="70" r=".5" fill="#5B9BD5" opacity=".05"></circle></pattern>
    <clipPath id="crownClip"><circle cx="60" cy="50" r="36"></circle></clipPath><clipPath id="sphereClip"><circle cx="50" cy="49" r="38"></circle></clipPath>
    <symbol id="sphere" viewBox="0 0 2376 1760"><path d="M0,0 L6,0 L22,8 L49,23 L79,43 L96,55 L109,65 L119,73 L130,82 L144,94 L156,105 L163,112 L171,119 L180,128 L187,136 L201,151 L210,162 L224,179 L237,197 L247,211 L258,228 L270,248 L279,264 L293,291 L305,317 L316,345 L328,381 L337,413 L345,449 L351,486 L355,523 L356,538 L356,598 L354,627 L350,659 L344,693 L336,726 L326,761 L317,787 L306,813 L291,846 L279,869 L263,896 L249,918 L236,936 L224,952 L216,962 L207,973 L198,983 L191,991 L179,1004 L154,1029 L146,1036 L134,1047 L123,1056 L107,1069 L88,1083 L55,1105 L35,1117 L10,1131 L-14,1143 L-47,1157 L-71,1166 L-98,1175 L-136,1185 L-169,1192 L-202,1197 L-231,1200 L-246,1201 L-309,1201 L-346,1198 L-383,1193 L-423,1185 L-464,1174 L-499,1162 L-528,1150 L-552,1139 L-578,1126 L-602,1112 L-622,1100 L-642,1086 L-661,1072 L-677,1059 L-688,1050 L-702,1038 L-719,1022 L-739,1002 L-746,994 L-748,991 L-749,986 L-749,893 L-745,845 L-740,803 L-733,760 L-732,757 L-729,758 L-719,771 L-705,788 L-694,801 L-685,811 L-676,821 L-662,836 L-635,863 L-627,870 L-613,883 L-602,892 L-589,903 L-572,916 L-552,931 L-535,943 L-517,955 L-496,968 L-471,982 L-448,994 L-429,1004 L-403,1016 L-365,1032 L-334,1044 L-330,1042 L-311,1029 L-295,1017 L-277,1004 L-259,990 L-243,977 L-227,964 L-212,951 L-202,942 L-194,935 L-198,932 L-221,920 L-251,904 L-268,894 L-290,882 L-313,868 L-332,856 L-354,842 L-374,829 L-399,813 L-419,799 L-435,788 L-452,776 L-471,762 L-492,746 L-506,735 L-517,726 L-528,717 L-541,706 L-551,697 L-562,688 L-570,680 L-578,673 L-592,659 L-600,652 L-608,644 L-615,636 L-627,624 L-634,616 L-647,601 L-656,590 L-667,576 L-680,558 L-677,548 L-665,517 L-651,485 L-634,449 L-617,417 L-613,411 L-609,413 L-565,457 L-557,464 L-546,475 L-538,482 L-523,496 L-515,503 L-504,513 L-493,522 L-482,532 L-471,541 L-457,553 L-443,564 L-426,578 L-413,588 L-399,599 L-386,609 L-368,623 L-347,639 L-333,649 L-315,662 L-297,675 L-281,686 L-261,700 L-240,714 L-216,730 L-199,741 L-174,757 L-155,769 L-126,786 L-100,801 L-71,818 L-64,812 L-54,801 L-45,790 L-35,779 L-26,768 L-14,753 L1,733 L14,715 L25,699 L19,692 L9,682 L1,675 L-9,665 L-17,658 L-29,647 L-37,640 L-47,631 L-58,622 L-69,612 L-80,603 L-93,592 L-107,581 L-119,571 L-133,560 L-151,546 L-169,532 L-187,518 L-201,507 L-218,494 L-239,478 L-251,469 L-272,453 L-293,437 L-305,428 L-318,418 L-335,405 L-356,389 L-377,373 L-389,364 L-406,351 L-427,335 L-444,322 L-462,308 L-478,296 L-496,282 L-507,273 L-503,267 L-492,256 L-484,249 L-475,240 L-467,233 L-455,222 L-444,213 L-429,200 L-419,192 L-404,180 L-390,170 L-384,172 L-355,188 L-332,201 L-307,215 L-283,229 L-257,244 L-229,261 L-209,273 L-190,285 L-165,301 L-125,328 L-107,341 L-93,351 L-72,367 L-55,380 L-41,392 L-30,401 L-19,411 L-11,418 L1,429 L13,441 L21,448 L33,461 L43,471 L50,479 L63,494 L77,511 L88,525 L102,544 L104,545 L105,540 L117,511 L128,480 L139,443 L146,413 L151,387 L155,359 L154,353 L142,337 L129,321 L121,311 L109,297 L94,281 L58,245 L50,238 L39,228 L31,221 L18,210 L4,199 L-11,187 L-29,174 L-47,161 L-82,138 L-103,125 L-125,112 L-146,100 L-170,87 L-197,73 L-208,67 L-208,64 L-180,52 L-143,38 L-108,26 L-80,18 L-36,7 Z " fill="#2E4470" transform="translate(1612,311)"/><path d="M0,0 L65,0 L102,3 L144,9 L172,15 L206,24 L242,36 L267,46 L274,49 L274,51 L245,57 L203,69 L166,81 L131,94 L90,112 L61,125 L42,135 L40,135 L40,137 L49,140 L90,160 L124,177 L146,189 L173,204 L193,216 L213,228 L246,250 L266,264 L285,278 L302,291 L319,305 L334,318 L346,329 L361,343 L399,381 L406,389 L418,403 L428,414 L439,428 L441,431 L440,443 L433,481 L425,513 L411,557 L409,559 L398,547 L389,536 L378,524 L371,516 L330,475 L322,468 L308,455 L297,446 L283,434 L273,426 L255,412 L236,398 L217,384 L194,368 L182,360 L159,345 L137,331 L116,318 L88,301 L66,288 L38,272 L9,255 L-19,239 L-46,224 L-73,209 L-78,208 L-95,220 L-113,234 L-126,244 L-137,253 L-151,265 L-161,274 L-169,281 L-181,292 L-193,303 L-235,345 L-235,347 L-216,361 L-202,372 L-181,388 L-162,402 L-147,414 L-131,426 L-118,436 L-100,450 L-81,464 L-63,478 L-44,492 L-26,506 L-10,518 L3,528 L21,542 L40,556 L53,566 L74,582 L93,596 L111,610 L126,622 L142,634 L155,645 L171,657 L184,668 L198,679 L215,693 L228,704 L239,713 L250,723 L261,732 L274,744 L282,751 L294,762 L303,769 L302,774 L290,791 L280,804 L272,814 L260,828 L252,838 L240,852 L236,853 L212,839 L188,825 L162,809 L143,797 L111,776 L67,747 L49,734 L32,722 L14,709 L0,699 L-19,685 L-36,672 L-52,660 L-66,649 L-81,637 L-95,626 L-111,613 L-121,605 L-134,594 L-147,583 L-161,571 L-172,561 L-183,552 L-190,545 L-198,538 L-205,531 L-213,524 L-229,509 L-246,493 L-282,457 L-289,449 L-297,441 L-302,435 L-306,440 L-318,459 L-331,482 L-346,510 L-363,546 L-380,586 L-395,625 L-397,632 L-386,648 L-376,661 L-367,672 L-358,683 L-346,697 L-339,705 L-328,717 L-319,727 L-291,755 L-283,762 L-267,777 L-257,786 L-247,795 L-236,804 L-226,813 L-212,824 L-196,837 L-177,851 L-157,866 L-141,877 L-124,889 L-85,915 L-67,927 L-48,939 L-24,954 L4,971 L30,986 L57,1001 L72,1009 L70,1013 L56,1025 L42,1036 L27,1048 L9,1061 L-10,1075 L-22,1083 L-32,1080 L-54,1072 L-90,1056 L-123,1040 L-149,1026 L-176,1010 L-195,998 L-214,985 L-232,972 L-250,958 L-261,949 L-274,938 L-288,926 L-301,914 L-342,873 L-349,865 L-360,853 L-367,845 L-378,832 L-389,818 L-400,804 L-411,790 L-422,775 L-433,759 L-435,765 L-444,813 L-451,856 L-457,902 L-460,933 L-462,972 L-463,1026 L-469,1021 L-482,1004 L-495,986 L-507,967 L-516,952 L-526,934 L-540,907 L-551,883 L-565,847 L-576,814 L-585,778 L-592,742 L-597,708 L-600,670 L-600,609 L-598,579 L-594,545 L-587,505 L-579,471 L-568,435 L-555,400 L-543,372 L-529,343 L-517,321 L-501,295 L-493,283 L-482,267 L-470,251 L-459,237 L-448,224 L-439,213 L-431,205 L-424,197 L-396,169 L-388,162 L-378,153 L-367,144 L-350,130 L-331,116 L-301,96 L-276,81 L-258,71 L-241,62 L-205,46 L-180,36 L-146,25 L-112,16 L-78,9 L-46,4 L-16,1 Z " fill="#2F8F48" transform="translate(1298,241)"/></symbol>
    <symbol id="crown" viewBox="0 0 2376 1760"><path d="M0,0 L6,0 L22,8 L49,23 L79,43 L96,55 L109,65 L119,73 L130,82 L144,94 L156,105 L163,112 L171,119 L180,128 L187,136 L201,151 L210,162 L224,179 L237,197 L247,211 L258,228 L270,248 L279,264 L293,291 L305,317 L316,345 L328,381 L337,413 L345,449 L351,486 L355,523 L356,538 L356,598 L354,627 L350,659 L344,693 L336,726 L326,761 L317,787 L306,813 L291,846 L279,869 L263,896 L249,918 L236,936 L224,952 L216,962 L207,973 L198,983 L191,991 L179,1004 L154,1029 L146,1036 L134,1047 L123,1056 L107,1069 L88,1083 L55,1105 L35,1117 L10,1131 L-14,1143 L-47,1157 L-71,1166 L-98,1175 L-136,1185 L-169,1192 L-202,1197 L-231,1200 L-246,1201 L-309,1201 L-346,1198 L-383,1193 L-423,1185 L-464,1174 L-499,1162 L-528,1150 L-552,1139 L-578,1126 L-602,1112 L-622,1100 L-642,1086 L-661,1072 L-677,1059 L-688,1050 L-702,1038 L-719,1022 L-739,1002 L-746,994 L-748,991 L-749,986 L-749,893 L-745,845 L-740,803 L-733,760 L-732,757 L-729,758 L-719,771 L-705,788 L-694,801 L-685,811 L-676,821 L-662,836 L-635,863 L-627,870 L-613,883 L-602,892 L-589,903 L-572,916 L-552,931 L-535,943 L-517,955 L-496,968 L-471,982 L-448,994 L-429,1004 L-403,1016 L-365,1032 L-334,1044 L-330,1042 L-311,1029 L-295,1017 L-277,1004 L-259,990 L-243,977 L-227,964 L-212,951 L-202,942 L-194,935 L-198,932 L-221,920 L-251,904 L-268,894 L-290,882 L-313,868 L-332,856 L-354,842 L-374,829 L-399,813 L-419,799 L-435,788 L-452,776 L-471,762 L-492,746 L-506,735 L-517,726 L-528,717 L-541,706 L-551,697 L-562,688 L-570,680 L-578,673 L-592,659 L-600,652 L-608,644 L-615,636 L-627,624 L-634,616 L-647,601 L-656,590 L-667,576 L-680,558 L-677,548 L-665,517 L-651,485 L-634,449 L-617,417 L-613,411 L-609,413 L-565,457 L-557,464 L-546,475 L-538,482 L-523,496 L-515,503 L-504,513 L-493,522 L-482,532 L-471,541 L-457,553 L-443,564 L-426,578 L-413,588 L-399,599 L-386,609 L-368,623 L-347,639 L-333,649 L-315,662 L-297,675 L-281,686 L-261,700 L-240,714 L-216,730 L-199,741 L-174,757 L-155,769 L-126,786 L-100,801 L-71,818 L-64,812 L-54,801 L-45,790 L-35,779 L-26,768 L-14,753 L1,733 L14,715 L25,699 L19,692 L9,682 L1,675 L-9,665 L-17,658 L-29,647 L-37,640 L-47,631 L-58,622 L-69,612 L-80,603 L-93,592 L-107,581 L-119,571 L-133,560 L-151,546 L-169,532 L-187,518 L-201,507 L-218,494 L-239,478 L-251,469 L-272,453 L-293,437 L-305,428 L-318,418 L-335,405 L-356,389 L-377,373 L-389,364 L-406,351 L-427,335 L-444,322 L-462,308 L-478,296 L-496,282 L-507,273 L-503,267 L-492,256 L-484,249 L-475,240 L-467,233 L-455,222 L-444,213 L-429,200 L-419,192 L-404,180 L-390,170 L-384,172 L-355,188 L-332,201 L-307,215 L-283,229 L-257,244 L-229,261 L-209,273 L-190,285 L-165,301 L-125,328 L-107,341 L-93,351 L-72,367 L-55,380 L-41,392 L-30,401 L-19,411 L-11,418 L1,429 L13,441 L21,448 L33,461 L43,471 L50,479 L63,494 L77,511 L88,525 L102,544 L104,545 L105,540 L117,511 L128,480 L139,443 L146,413 L151,387 L155,359 L154,353 L142,337 L129,321 L121,311 L109,297 L94,281 L58,245 L50,238 L39,228 L31,221 L18,210 L4,199 L-11,187 L-29,174 L-47,161 L-82,138 L-103,125 L-125,112 L-146,100 L-170,87 L-197,73 L-208,67 L-208,64 L-180,52 L-143,38 L-108,26 L-80,18 L-36,7 Z " fill="#2E4470" transform="translate(1612,311)"/><path d="M0,0 L65,0 L102,3 L144,9 L172,15 L206,24 L242,36 L267,46 L274,49 L274,51 L245,57 L203,69 L166,81 L131,94 L90,112 L61,125 L42,135 L40,135 L40,137 L49,140 L90,160 L124,177 L146,189 L173,204 L193,216 L213,228 L246,250 L266,264 L285,278 L302,291 L319,305 L334,318 L346,329 L361,343 L399,381 L406,389 L418,403 L428,414 L439,428 L441,431 L440,443 L433,481 L425,513 L411,557 L409,559 L398,547 L389,536 L378,524 L371,516 L330,475 L322,468 L308,455 L297,446 L283,434 L273,426 L255,412 L236,398 L217,384 L194,368 L182,360 L159,345 L137,331 L116,318 L88,301 L66,288 L38,272 L9,255 L-19,239 L-46,224 L-73,209 L-78,208 L-95,220 L-113,234 L-126,244 L-137,253 L-151,265 L-161,274 L-169,281 L-181,292 L-193,303 L-235,345 L-235,347 L-216,361 L-202,372 L-181,388 L-162,402 L-147,414 L-131,426 L-118,436 L-100,450 L-81,464 L-63,478 L-44,492 L-26,506 L-10,518 L3,528 L21,542 L40,556 L53,566 L74,582 L93,596 L111,610 L126,622 L142,634 L155,645 L171,657 L184,668 L198,679 L215,693 L228,704 L239,713 L250,723 L261,732 L274,744 L282,751 L294,762 L303,769 L302,774 L290,791 L280,804 L272,814 L260,828 L252,838 L240,852 L236,853 L212,839 L188,825 L162,809 L143,797 L111,776 L67,747 L49,734 L32,722 L14,709 L0,699 L-19,685 L-36,672 L-52,660 L-66,649 L-81,637 L-95,626 L-111,613 L-121,605 L-134,594 L-147,583 L-161,571 L-172,561 L-183,552 L-190,545 L-198,538 L-205,531 L-213,524 L-229,509 L-246,493 L-282,457 L-289,449 L-297,441 L-302,435 L-306,440 L-318,459 L-331,482 L-346,510 L-363,546 L-380,586 L-395,625 L-397,632 L-386,648 L-376,661 L-367,672 L-358,683 L-346,697 L-339,705 L-328,717 L-319,727 L-291,755 L-283,762 L-267,777 L-257,786 L-247,795 L-236,804 L-226,813 L-212,824 L-196,837 L-177,851 L-157,866 L-141,877 L-124,889 L-85,915 L-67,927 L-48,939 L-24,954 L4,971 L30,986 L57,1001 L72,1009 L70,1013 L56,1025 L42,1036 L27,1048 L9,1061 L-10,1075 L-22,1083 L-32,1080 L-54,1072 L-90,1056 L-123,1040 L-149,1026 L-176,1010 L-195,998 L-214,985 L-232,972 L-250,958 L-261,949 L-274,938 L-288,926 L-301,914 L-342,873 L-349,865 L-360,853 L-367,845 L-378,832 L-389,818 L-400,804 L-411,790 L-422,775 L-433,759 L-435,765 L-444,813 L-451,856 L-457,902 L-460,933 L-462,972 L-463,1026 L-469,1021 L-482,1004 L-495,986 L-507,967 L-516,952 L-526,934 L-540,907 L-551,883 L-565,847 L-576,814 L-585,778 L-592,742 L-597,708 L-600,670 L-600,609 L-598,579 L-594,545 L-587,505 L-579,471 L-568,435 L-555,400 L-543,372 L-529,343 L-517,321 L-501,295 L-493,283 L-482,267 L-470,251 L-459,237 L-448,224 L-439,213 L-431,205 L-424,197 L-396,169 L-388,162 L-378,153 L-367,144 L-350,130 L-331,116 L-301,96 L-276,81 L-258,71 L-241,62 L-205,46 L-180,36 L-146,25 L-112,16 L-78,9 L-46,4 L-16,1 Z " fill="#2F8F48" transform="translate(1298,241)"/></symbol>
  </defs>

    
    <rect id="bg" width="1080" height="1080" fill="#2E4470"></rect>
    <rect width="1080" height="1080" fill="url(#grain)" opacity=".7"></rect>
    <rect width="1080" height="1080" fill="url(#vignette)"></rect>
    
  
    <g id="headline" font-family="Cormorant Garamond,Georgia,serif" font-style="italic" font-weight="500" fill="#5B9BD5" text-anchor="middle">
      <text x="540" y="377.59999999999997" font-size="64">&#34;El cumplimiento</text><text x="540" y="448" font-size="64">fiscal no es</text><text x="540" y="518.4" font-size="64">una carga.</text><text x="540" y="588.8" font-size="64">Es la garantía</text><text x="540" y="659.2" font-size="64">de tranquilidad.&#34;</text>
    </g>
    <g id="attribution" transform="translate(540,744.4)">
      <rect x="-80" y="0" width="160" height="1" fill="url(#g)"></rect>
      <text x="0" y="36" text-anchor="middle" font-family="Inter,Arial,sans-serif" font-size="18" fill="#9CA8B8" letter-spacing="2">— [Nombre Socio Director]</text>
      <text x="0" y="60" text-anchor="middle" font-family="Inter,Arial,sans-serif" font-weight="500" font-size="14" fill="#1E5090" letter-spacing="3">GRUPO CHRYTSA</text>
    </g>
    
    <g id="logo">
      <use href="#crown" x="60" y="964" width="67.2" height="56"></use>
      <text x="141.2" y="999.7" font-family="Cinzel,Georgia,serif" font-weight="600" font-size="22" fill="#5B9BD5" letter-spacing="1.3199999999999998">GRUPO CHRYTSA</text>
      <text x="141.2" y="1017.7" font-family="Inter,Arial,sans-serif" font-weight="500" font-size="10" fill="#1E5090" letter-spacing="3.2">ASESORES</text>
      <text x="1020" y="1016" text-anchor="end" font-family="JetBrains Mono,monospace" font-size="11" fill="#163B6B" letter-spacing="1.98">@grupochrytsa</text>
    </g>
  
  </svg>